<?xml version="1.0" standalone="no"?>
<!DOCTYPE svg PUBLIC "-//W3C//DTD SVG 20010904//EN"
 "http://www.w3.org/TR/2001/REC-SVG-20010904/DTD/svg10.dtd">
<svg version="1.0" xmlns="http://www.w3.org/2000/svg"
 width="1920.000000pt" height="989.000000pt" viewBox="0 0 1920.000000 989.000000"
 preserveAspectRatio="xMidYMid meet">

<g transform="translate(0.000000,989.000000) scale(0.100000,-0.100000)"
fill="#00000010" stroke="none">
<path d="M2717 8286 c-112 -47 -210 -142 -324 -311 -218 -326 -495 -649 -698
-814 -120 -98 -292 -197 -410 -235 -298 -98 -617 -30 -955 203 -63 43 -128 95
-255 200 -60 50 -105 72 -52 26 16 -14 22 -25 15 -25 -8 0 -19 5 -26 12 -7 7
-12 8 -12 3 0 -6 32 -28 71 -50 58 -34 113 -75 98 -75 -2 0 -37 14 -78 30 -41
17 -78 29 -83 28 -5 -2 38 -23 95 -46 58 -24 115 -54 128 -68 12 -13 21 -24
18 -24 -2 0 -49 11 -104 25 -55 14 -111 24 -125 24 -18 -1 -13 -4 15 -10 207
-49 243 -61 265 -92 l23 -30 -39 7 c-21 3 -95 8 -164 10 -112 4 -116 4 -35 -3
228 -20 237 -22 267 -51 15 -16 28 -33 28 -38 0 -5 -71 -12 -157 -15 -87 -4
-174 -11 -193 -17 -34 -9 -34 -9 10 -5 25 3 115 8 201 12 l156 6 22 -31 c24
-34 21 -52 -9 -52 -19 0 -256 -47 -357 -71 -29 -7 -53 -16 -53 -20 0 -4 24 -1
53 7 91 24 342 74 374 74 25 0 36 -7 52 -34 12 -18 21 -36 21 -39 0 -3 -51
-22 -113 -42 -93 -30 -266 -90 -366 -127 -13 -5 -22 -11 -19 -13 2 -2 79 22
172 55 178 64 336 114 340 108 12 -16 46 -77 46 -82 0 -4 -35 -22 -77 -42
-194 -88 -483 -228 -479 -231 2 -2 107 44 232 103 126 59 253 117 281 130 l53
24 25 -50 25 -49 -232 -139 c-128 -76 -268 -158 -310 -183 -43 -24 -78 -48
-78 -52 0 -5 15 0 33 11 17 11 145 86 282 168 138 81 264 156 281 166 l30 18
22 -45 c12 -25 22 -50 22 -55 0 -13 -246 -195 -482 -359 -98 -67 -181 -127
-184 -133 -5 -7 -2 -8 7 -3 56 33 567 397 656 468 10 7 20 -5 39 -48 l26 -57
-53 -47 c-131 -117 -315 -272 -490 -413 -104 -84 -189 -156 -189 -161 0 -14
457 361 652 536 43 38 81 66 86 63 5 -3 17 -30 27 -61 l19 -55 -139 -141 c-77
-77 -254 -247 -393 -376 -139 -130 -250 -238 -248 -241 7 -6 394 355 605 565
96 95 178 173 182 173 5 0 49 -103 49 -116 0 -6 -176 -211 -279 -324 -98 -107
-191 -207 -387 -410 -134 -139 -174 -183 -170 -187 3 -4 143 139 346 352 137
144 392 427 451 502 19 23 38 41 43 40 4 -2 19 -29 32 -61 l24 -59 -57 -76
c-122 -163 -370 -468 -579 -709 -242 -280 -278 -324 -250 -302 54 43 574 659
760 901 65 85 121 155 126 157 8 3 50 -101 50 -125 0 -39 -454 -662 -755
-1037 -195 -242 -198 -246 -193 -251 4 -4 20 16 230 278 229 285 628 827 706
960 9 15 19 27 22 27 7 0 50 -119 50 -138 0 -30 -329 -542 -560 -872 -111
-158 -347 -477 -423 -572 -17 -21 -28 -40 -26 -42 7 -7 223 277 396 519 182
255 351 509 502 753 63 100 117 182 121 182 3 0 18 -30 33 -66 l26 -66 -101
-182 c-244 -438 -586 -977 -858 -1349 -67 -92 -120 -170 -118 -172 9 -9 296
394 470 660 146 223 416 671 523 867 44 81 83 148 87 148 3 0 18 -31 33 -68
l27 -69 -107 -214 c-160 -319 -299 -573 -483 -879 -116 -195 -396 -620 -491
-748 -34 -46 -60 -86 -58 -88 5 -6 71 83 194 261 287 416 548 859 829 1410
l123 240 16 -40 c127 -309 334 -736 455 -935 243 -401 468 -689 789 -1010 348
-347 709 -625 1162 -894 l146 -87 27 -132 c134 -638 400 -975 846 -1072 41
-10 353 -29 850 -54 432 -22 812 -43 845 -46 33 -2 193 -12 355 -20 407 -21
1159 -68 1519 -95 195 -15 554 -48 706 -66 575 -66 829 -92 1185 -119 1026
-77 2110 -84 3160 -20 775 48 1641 143 2379 262 l164 26 20 -28 c34 -46 224
-273 331 -395 124 -141 505 -530 519 -530 6 0 -93 105 -219 233 -216 218 -374
394 -558 621 -43 53 -77 98 -75 100 8 5 195 36 220 35 18 0 49 -29 124 -116
164 -191 403 -439 571 -594 205 -188 314 -283 320 -276 3 2 -23 28 -58 57
-112 93 -370 334 -498 466 -189 194 -426 461 -418 469 3 3 54 15 114 26 l108
21 45 -49 c193 -210 541 -544 756 -724 127 -106 345 -272 351 -267 2 3 -30 31
-73 63 -293 218 -641 529 -904 807 -82 86 -149 161 -149 166 0 5 51 18 113 30
l112 21 125 -123 c249 -244 485 -447 754 -649 164 -123 432 -303 463 -313 23
-6 26 -9 -160 115 -167 110 -437 312 -592 441 -257 215 -580 525 -554 534 8 3
59 14 114 25 l99 19 42 -36 c23 -21 95 -84 160 -142 390 -345 811 -639 1271
-889 72 -39 137 -71 144 -71 8 0 -56 38 -141 83 -476 257 -900 557 -1328 940
-67 61 -119 113 -115 117 4 4 57 17 116 30 l109 22 31 -30 c18 -16 77 -65 132
-109 562 -448 1054 -740 1674 -994 79 -32 151 -59 160 -59 9 0 -49 27 -129 59
-634 255 -1215 604 -1763 1058 -64 52 -85 75 -73 79 8 3 60 16 114 28 l99 22
114 -84 c540 -397 1080 -690 1687 -914 74 -27 137 -47 140 -44 3 3 -1 8 -9 11
-496 177 -847 340 -1238 574 -263 158 -680 447 -664 461 5 4 56 17 115 30
l107 23 108 -70 c501 -326 971 -561 1468 -733 60 -21 112 -37 114 -34 2 2 -2
6 -10 8 -74 25 -390 146 -489 187 -173 73 -567 271 -731 367 -211 124 -429
266 -426 276 2 5 51 20 109 34 l105 25 124 -70 c416 -236 911 -457 1263 -564
108 -33 43 -3 -99 46 -292 100 -597 232 -900 389 -230 119 -351 190 -347 202
3 14 172 55 207 50 17 -2 116 -44 220 -93 105 -50 259 -118 344 -152 259 -105
617 -229 628 -217 3 2 -49 21 -114 41 -156 49 -429 151 -612 229 -178 76 -431
197 -431 205 0 4 49 19 109 34 l109 27 45 -19 c216 -93 858 -309 888 -299 6 2
-63 25 -153 52 -163 48 -473 155 -623 216 -44 18 -91 36 -104 41 -13 5 -21 12
-19 15 3 3 52 18 108 34 l103 28 106 -33 c224 -70 601 -171 585 -156 -5 5 -74
25 -154 45 -172 44 -482 135 -493 146 -5 4 40 20 99 37 l108 29 145 -32 c210
-47 301 -63 301 -53 0 5 -9 9 -21 9 -20 0 -339 66 -368 76 -22 7 -9 14 92 44
94 28 95 28 193 15 54 -8 100 -12 102 -10 6 5 -28 13 -91 20 -31 4 -55 10 -52
14 2 5 36 17 75 27 53 13 70 22 68 34 -2 11 -20 16 -68 20 -69 5 -70 13 -5 24
63 11 75 16 75 33 0 12 -9 14 -52 9 -29 -3 -192 -9 -363 -12 -288 -5 -327 -4
-550 20 -800 86 -1594 397 -2356 922 -238 163 -532 391 -676 522 -57 52 -97
81 -104 76 -7 -4 -9 -3 -6 3 4 6 -30 44 -76 84 -115 102 -452 435 -561 554
-50 55 -134 145 -186 200 -194 206 -555 639 -792 950 -67 88 -140 183 -163
210 -23 28 -76 100 -118 160 -42 61 -101 142 -131 180 -31 39 -98 133 -151
210 -382 562 -736 876 -1125 999 -143 46 -243 60 -410 59 -607 -3 -1183 -303
-1822 -949 -464 -470 -820 -930 -1631 -2111 -836 -1216 -1160 -1637 -1586
-2064 -184 -183 -286 -274 -429 -382 l-74 -55 -81 25 c-203 61 -550 180 -661
225 -854 351 -1294 931 -1400 1843 -27 225 -30 471 -11 920 9 231 20 508 24
615 12 303 12 1165 1 1365 -35 596 -128 1030 -291 1358 -70 141 -140 238 -250
348 -122 122 -209 170 -321 176 -61 3 -83 0 -131 -21z m203 -2 c184 -54 403
-299 529 -591 174 -400 247 -872 258 -1668 6 -418 -11 -1240 -27 -1307 -4 -18
-8 174 -9 427 -1 454 -11 776 -31 1050 -64 854 -243 1406 -560 1726 -144 146
-262 205 -392 197 -79 -5 -128 -25 -210 -85 -27 -19 -48 -32 -48 -28 0 13 98
131 143 172 120 110 226 143 347 107z m-112 -189 c75 -23 189 -104 280 -200
282 -298 450 -780 522 -1504 36 -361 42 -522 45 -1251 3 -749 -4 -804 -25
-180 -23 704 -58 1134 -126 1530 -103 601 -292 1027 -566 1275 -204 184 -384
221 -551 115 -26 -16 -50 -30 -53 -30 -11 0 23 48 70 98 134 142 263 189 404
147z m-124 -185 c194 -60 428 -311 570 -611 193 -410 298 -978 346 -1869 21
-409 46 -1208 37 -1200 -3 3 -12 113 -22 245 -86 1256 -144 1705 -286 2208
-142 503 -412 897 -714 1039 -93 43 -201 51 -285 19 -30 -12 -58 -21 -63 -21
-15 0 33 78 63 104 45 37 114 76 163 91 61 19 116 18 191 -5z m-112 -183 c93
-34 180 -97 298 -216 397 -399 584 -1059 689 -2431 43 -558 81 -1103 77 -1107
-6 -6 -12 47 -71 577 -102 917 -153 1260 -241 1630 -135 566 -312 925 -584
1183 -190 182 -345 254 -487 228 -31 -6 -58 -9 -60 -7 -3 2 7 26 20 53 25 48
70 80 145 103 54 16 149 11 214 -13z m-340 -29 c-7 -7 -12 -8 -12 -2 0 14 12
26 19 19 2 -3 -1 -11 -7 -17z m-52 -103 c-19 -30 -40 -46 -40 -30 0 15 54 88
58 77 2 -6 -6 -28 -18 -47z m-60 -36 c-7 -11 -14 -18 -17 -15 -3 3 0 12 7 21
18 21 23 19 10 -6z m323 -3 c32 -13 83 -39 114 -58 73 -43 267 -230 340 -327
244 -322 408 -813 523 -1554 42 -276 64 -445 120 -952 28 -247 62 -544 76
-658 58 -472 4 -184 -131 698 -149 970 -248 1401 -420 1817 -109 262 -246 468
-437 655 -174 169 -307 247 -443 260 l-62 6 25 57 c31 69 49 78 162 79 57 0
89 -5 133 -23z m-293 -21 c0 -20 -53 -105 -65 -105 -8 0 -15 2 -15 5 0 11 32
70 48 88 14 16 32 23 32 12z m-91 -89 c-11 -20 -25 -36 -30 -36 -15 0 -10 13
18 55 32 47 43 32 12 -19z m-61 -35 c-7 -12 -16 -21 -21 -21 -8 0 -2 14 16 38
16 20 20 6 5 -17z m296 -12 c161 -60 392 -265 544 -482 156 -223 292 -547 392
-932 89 -341 145 -640 270 -1454 45 -289 97 -613 116 -720 19 -107 32 -196 29
-199 -2 -3 -7 1 -9 9 -13 35 -102 462 -180 854 -109 549 -155 770 -204 975
-172 709 -358 1130 -640 1446 -189 212 -358 341 -498 380 l-61 17 25 59 c15
34 35 64 47 69 28 12 106 2 169 -22z m-229 -49 c-20 -41 -34 -60 -47 -60 -23
0 -23 -1 9 64 23 48 47 71 62 59 3 -2 -8 -30 -24 -63z m-59 -9 c-15 -28 -33
-51 -41 -51 -19 0 -19 3 5 50 18 34 49 64 58 55 2 -2 -8 -26 -22 -54z m-46 12
c0 -19 -41 -73 -55 -73 -12 0 -9 9 11 40 24 37 44 51 44 33z m-82 -68 c-6 -14
-18 -25 -26 -25 -12 0 -10 6 8 25 13 14 25 25 27 25 1 0 -3 -11 -9 -25z m92
-10 c0 -2 -12 -29 -27 -60 -21 -43 -32 -55 -50 -55 l-23 0 20 40 c22 44 54 80
70 80 6 0 10 -2 10 -5z m60 1 c0 -12 -62 -136 -68 -136 -4 0 -13 4 -20 9 -21
13 41 131 68 131 11 0 20 -2 20 -4z m165 -45 c33 -15 96 -55 141 -89 97 -73
287 -268 372 -382 204 -270 366 -656 506 -1208 63 -248 88 -363 230 -1072 68
-344 143 -703 165 -798 43 -182 47 -202 32 -187 -20 22 -100 325 -280 1055
-137 557 -194 770 -267 1008 -142 457 -323 830 -518 1067 -180 219 -380 403
-509 470 -40 21 -74 40 -76 42 -5 4 37 112 51 129 12 16 76 1 153 -35z m-312
-21 c-17 -30 -35 -50 -45 -50 -10 0 -18 4 -18 8 0 18 61 92 76 92 12 0 9 -10
-13 -50z m-62 -13 c-22 -37 -51 -55 -51 -34 0 16 59 81 67 74 3 -3 -4 -21 -16
-40z m-76 -37 c-10 -11 -20 -18 -23 -15 -3 3 3 14 13 25 10 11 20 18 23 15 3
-3 -3 -14 -13 -25z m95 -22 c0 -8 -41 -88 -55 -106 -4 -5 -35 10 -35 17 0 4
13 28 30 54 27 43 60 63 60 35z m60 -3 c0 -31 -50 -115 -69 -115 -31 0 -31 12
1 71 20 40 37 59 49 59 11 0 19 -7 19 -15z m-122 -2 c-33 -70 -43 -83 -65 -83
-13 0 -23 3 -23 6 0 15 63 84 77 84 8 0 13 -3 11 -7z m177 -2 c8 -14 -45 -141
-59 -141 -6 0 -18 5 -26 10 -13 8 -10 19 18 75 29 60 52 79 67 56z m-245 -17
c0 -15 -43 -64 -56 -64 -21 0 -17 10 13 42 25 26 43 35 43 22z m369 -36 c116
-67 332 -269 483 -455 236 -288 426 -712 599 -1335 28 -101 122 -471 209 -823
87 -352 186 -736 219 -853 34 -117 61 -217 61 -222 0 -76 -148 358 -305 895
-222 758 -301 1010 -400 1270 -146 385 -294 658 -477 883 -193 237 -375 420
-495 500 -29 19 -53 39 -53 43 0 5 12 38 27 74 25 62 29 66 53 60 14 -4 49
-20 79 -37z m-1711 -16 c6 -20 -27 -13 -38 7 -5 11 -10 23 -10 27 0 10 43 -21
48 -34z m1260 6 c-9 -13 -24 -25 -34 -27 -17 -3 -16 0 5 23 30 32 49 34 29 4z
m-1203 -18 c3 -5 -1 -10 -9 -10 -9 0 -16 5 -16 10 0 6 4 10 9 10 6 0 13 -4 16
-10z m1203 -64 c-15 -23 -31 -36 -45 -36 -28 0 -28 4 -2 42 22 30 61 52 67 38
2 -5 -7 -25 -20 -44z m63 -4 c-17 -29 -34 -47 -46 -47 -29 0 -28 18 4 62 22
31 35 40 50 36 18 -5 18 -7 -8 -51z m-1270 26 c21 -27 24 -38 7 -38 -14 0 -58
40 -58 52 0 16 32 7 51 -14z m1138 -24 c-12 -13 -32 -24 -43 -24 -18 1 -15 6
18 37 44 40 65 29 25 -13z m205 40 c13 -5 11 -15 -14 -65 -32 -63 -37 -66 -63
-46 -15 11 -13 17 16 65 33 54 35 56 61 46z m-1286 -20 c24 -16 29 -34 10 -34
-14 0 -48 30 -48 42 0 12 13 10 38 -8z m1355 0 c9 -9 -51 -129 -66 -132 -8 -2
-19 4 -26 12 -10 12 -6 25 19 70 29 51 54 68 73 50z m-338 -24 c-10 -11 -25
-20 -33 -20 -12 0 -12 4 3 20 10 11 25 20 33 20 12 0 12 -4 -3 -20z m-945 0
c8 -5 11 -12 7 -16 -4 -4 -15 0 -24 9 -18 18 -8 23 17 7z m1324 4 c22 -8 20
-23 -10 -93 -27 -63 -42 -73 -65 -45 -11 13 -8 26 19 80 18 35 34 64 36 64 2
0 11 -3 20 -6z m9826 -36 c329 -88 609 -278 893 -608 125 -145 269 -341 262
-358 -3 -8 20 -42 54 -80 53 -61 107 -138 141 -201 7 -14 -38 21 -101 78 -324
293 -621 451 -949 506 -136 23 -376 24 -521 1 -740 -115 -1444 -623 -2344
-1691 -184 -218 -401 -490 -680 -850 -635 -821 -817 -1047 -1093 -1365 -204
-234 -552 -582 -732 -731 -171 -142 -412 -309 -446 -309 -25 0 -144 33 -144
41 0 3 26 23 58 44 227 150 569 467 852 790 312 355 543 653 1135 1465 544
745 665 906 929 1235 886 1103 1616 1632 2368 1714 500 55 903 -103 1337 -524
74 -71 125 -116 113 -99 -27 39 -186 192 -282 270 -218 178 -461 298 -705 349
-121 25 -355 30 -502 11 -751 -99 -1461 -622 -2352 -1731 -245 -305 -420 -538
-867 -1152 -754 -1036 -1054 -1411 -1448 -1811 -216 -219 -429 -404 -602 -520
l-61 -41 -69 21 c-38 11 -73 23 -77 27 -4 4 10 20 32 34 88 58 295 240 446
391 399 400 757 861 1450 1866 603 876 732 1057 983 1390 886 1172 1598 1733
2352 1855 57 10 148 13 280 11 171 -3 207 -6 290 -28z m-11212 -17 c11 -16 18
-31 15 -35 -15 -14 -43 -4 -62 23 -26 37 -26 41 2 41 14 0 32 -12 45 -29z m56
8 c31 -25 33 -39 5 -39 -19 0 -58 35 -59 53 0 14 27 7 54 -14z m1444 -26 c121
-86 373 -352 533 -563 124 -163 255 -407 365 -676 112 -275 203 -556 413
-1274 124 -425 218 -726 297 -947 79 -222 73 -267 -9 -73 -108 255 -203 514
-402 1090 -307 890 -433 1191 -630 1510 -133 214 -451 597 -635 765 -36 32
-67 63 -69 68 -5 14 51 147 62 147 5 0 39 -21 75 -47z m-1371 17 c22 -17 23
-21 8 -26 -11 -5 -26 2 -43 20 -23 22 -24 26 -8 26 10 0 29 -9 43 -20z m833
13 c0 -15 -45 -53 -62 -53 -26 0 -22 15 10 39 27 20 52 27 52 14z m70 -1 c0
-4 -13 -23 -28 -41 -22 -27 -32 -32 -51 -26 l-23 7 33 34 c30 31 69 46 69 26z
m-157 -23 c-11 -12 -29 -19 -39 -17 -16 3 -14 7 11 21 41 23 53 21 28 -4z
m217 8 c0 -13 -47 -87 -56 -87 -3 0 -14 5 -25 11 -19 10 -19 12 11 50 30 37
70 53 70 26z m-895 -7 c3 -5 -1 -10 -9 -10 -8 0 -18 5 -21 10 -3 6 1 10 9 10
8 0 18 -4 21 -10z m945 0 c18 -10 17 -12 -7 -56 -29 -51 -48 -63 -68 -43 -12
12 -10 21 16 62 35 52 33 51 59 37z m75 -31 c3 -4 -10 -35 -28 -69 l-34 -61
-24 19 -23 19 33 55 c26 43 38 54 52 51 11 -3 22 -9 24 -14z m-946 -14 c11
-11 10 -14 -9 -20 -21 -7 -60 17 -60 38 0 12 51 -1 69 -18z m-139 -15 l21 -29
-27 -7 c-21 -5 -31 -2 -45 17 -25 33 -24 49 5 49 16 0 32 -11 46 -30z m65 14
c28 -18 24 -34 -7 -34 -22 0 -58 26 -58 42 0 14 39 9 65 -8z m140 6 c3 -6 -5
-10 -19 -10 -14 0 -28 5 -31 10 -3 6 5 10 19 10 14 0 28 -4 31 -10z m405 -5
c-14 -16 -50 -21 -50 -6 0 11 18 19 44 20 15 1 16 -2 6 -14z m90 9 c0 -11 -45
-43 -61 -44 -28 0 -31 14 -7 32 22 17 68 25 68 12z m-769 -35 c18 -26 19 -33
8 -40 -25 -16 -44 -9 -61 22 -24 41 -23 49 6 49 16 0 32 -11 47 -31z m839 24
c0 -11 -53 -63 -64 -63 -6 0 -18 5 -26 10 -22 14 25 60 62 60 15 0 28 -3 28
-7z m373 -29 c-1 -5 -14 -35 -28 -66 -27 -60 -43 -70 -66 -42 -11 13 -7 26 20
81 31 63 32 64 54 50 12 -8 21 -18 20 -23z m-799 17 c3 -5 -1 -11 -9 -15 -18
-6 -45 2 -45 15 0 12 47 12 54 0z m136 0 c0 -13 -37 -24 -51 -15 -8 4 -7 9 2
15 19 12 49 11 49 0z m339 0 c12 -8 10 -16 -13 -50 -32 -46 -34 -47 -61 -27
-17 13 -17 15 10 50 28 37 40 42 64 27z m-543 -15 c18 -14 18 -15 -9 -21 -22
-6 -34 -3 -50 14 l-21 21 30 0 c17 0 39 -6 50 -14z m272 6 c20 -13 -21 -45
-47 -37 -26 8 -27 21 -3 34 21 13 33 13 50 3z m-343 -22 c17 -19 17 -20 -9
-31 -23 -11 -30 -10 -48 8 -11 12 -17 26 -14 32 11 18 51 13 71 -9z m199 14
c22 -8 20 -21 -4 -34 -14 -8 -26 -8 -40 0 -32 17 -24 31 22 39 3 0 13 -2 22
-5z m480 -44 c-39 -65 -49 -73 -72 -59 -29 18 -28 24 8 70 28 34 33 37 55 27
23 -10 24 -12 9 -38z m-754 15 c25 -26 21 -38 -15 -48 -14 -4 -27 3 -43 24
l-24 29 24 9 c33 14 32 14 58 -14z m495 6 c0 -8 -12 -23 -26 -33 -23 -17 -29
-18 -48 -7 -27 18 -27 21 7 42 31 19 67 19 67 -2z m572 -3 c9 -7 4 -28 -19
-81 -17 -40 -32 -74 -34 -76 -2 -3 -15 6 -29 19 l-24 23 35 69 c34 68 39 71
71 46z m-837 -24 c0 -2 -13 -10 -29 -18 -27 -14 -30 -14 -50 8 l-22 24 28 9
c21 7 34 6 51 -5 12 -8 22 -16 22 -18z m-301 -5 c24 -32 21 -42 -15 -53 -17
-5 -26 1 -43 29 -25 44 -25 42 -3 48 33 9 38 7 61 -24z m421 21 c12 -7 12 -12
-4 -29 -23 -25 -49 -27 -67 -5 -24 29 35 57 71 34z m202 -4 c16 -12 15 -15
-11 -47 -27 -32 -30 -33 -55 -20 -33 18 -33 24 5 55 35 30 38 30 61 12z m272
-14 c3 -6 -41 -89 -59 -110 -7 -7 -45 24 -45 36 0 7 14 33 31 58 25 37 33 43
49 34 10 -6 21 -14 24 -18z m-966 -28 c24 -37 22 -47 -14 -58 -16 -5 -25 2
-42 33 -27 47 -27 48 -4 54 33 9 37 7 60 -29z m281 12 l23 -24 -30 -16 c-28
-14 -30 -14 -53 10 -24 25 -24 26 -5 40 27 20 39 18 65 -10z m291 -16 c0 -3
-14 -19 -30 -35 l-30 -29 -26 25 -26 26 33 21 c26 16 37 18 56 9 12 -5 23 -13
23 -17z m194 1 c3 -4 -9 -27 -26 -50 l-31 -42 -23 22 c-25 24 -25 26 19 76 15
17 24 20 38 13 10 -6 20 -14 23 -19z m602 -87 c121 -122 325 -362 450 -526
227 -301 411 -704 686 -1503 263 -764 346 -990 470 -1284 42 -100 68 -173 66
-190 -3 -21 -18 2 -75 114 -140 276 -246 523 -498 1155 -319 803 -450 1085
-643 1380 -110 168 -418 560 -578 735 l-82 91 30 72 c18 41 37 72 45 72 8 0
66 -52 129 -116z m-951 91 c19 -15 19 -16 -8 -42 l-26 -27 -26 24 c-31 29 -31
34 -2 48 30 14 39 14 62 -3z m583 -78 c-16 -34 -32 -64 -34 -66 -2 -3 -15 6
-29 19 -27 25 -26 26 22 103 23 36 24 37 48 21 l24 -16 -31 -61z m-794 54 l28
-29 -33 -17 c-31 -17 -33 -16 -47 1 -30 41 -33 53 -15 63 28 16 37 13 67 -18z
m411 -11 c17 -19 17 -21 -9 -55 -15 -19 -30 -35 -33 -35 -4 0 -17 10 -30 22
l-23 22 32 33 c37 39 39 39 63 13z m210 -10 c4 -6 -8 -33 -26 -61 l-32 -50
-23 22 c-13 12 -24 25 -24 29 0 3 14 25 32 48 25 33 35 39 49 31 10 -5 21 -14
24 -19z m-697 -10 c28 -37 28 -44 -2 -59 -29 -16 -41 -10 -62 31 -15 30 -15
32 2 45 26 19 38 16 62 -17z m213 4 l24 -25 -25 -19 c-34 -26 -45 -25 -69 9
l-21 29 23 15 c31 22 40 21 68 -9z m138 -6 l24 -21 -34 -28 -34 -28 -22 21
c-13 12 -23 26 -23 31 0 11 41 46 56 47 5 0 21 -10 33 -22z m592 6 c17 -15 16
-19 -14 -83 -17 -36 -33 -68 -35 -70 -1 -3 -14 7 -28 21 l-26 26 33 61 c19 33
38 61 43 61 5 0 17 -7 27 -16z m-1013 -44 c12 -21 22 -41 22 -44 0 -3 -13 -12
-30 -21 l-29 -15 -21 39 c-11 22 -20 45 -20 51 0 9 31 27 50 29 3 1 15 -17 28
-39z m207 -2 l27 -32 -28 -23 c-16 -13 -32 -23 -36 -23 -3 0 -16 16 -29 36
l-22 37 24 18 c32 24 33 24 64 -13z m407 15 c25 -22 23 -33 -11 -73 l-30 -35
-25 25 -26 25 31 38 c35 42 36 43 61 20z m200 0 c10 -9 18 -20 18 -24 0 -13
-61 -109 -68 -109 -4 0 -15 12 -25 26 -18 25 -18 25 13 74 18 28 35 50 38 50
3 0 14 -7 24 -17z m-452 -64 c0 -8 -59 -63 -63 -58 -20 25 -48 71 -46 73 2 1
17 12 33 25 l30 22 22 -28 c13 -15 23 -31 24 -34z m119 37 l23 -25 -27 -35
c-32 -42 -40 -44 -66 -13 -24 29 -24 36 8 69 33 34 34 34 62 4z m583 7 c24
-22 23 -30 -12 -109 l-31 -68 -26 27 -27 27 34 70 c19 38 36 70 39 70 2 0 13
-7 23 -17z m-933 -47 c12 -18 21 -36 21 -39 0 -3 -13 -15 -29 -27 l-30 -20
-25 42 -26 43 21 18 c31 25 45 21 68 -17z m736 -68 c-38 -73 -41 -75 -64 -47
-26 31 -26 32 10 96 l32 55 25 -26 26 -25 -29 -53z m-189 71 l23 -21 -32 -49
c-18 -27 -35 -49 -39 -49 -4 0 -16 14 -28 30 l-22 30 32 40 c17 22 34 40 38
40 3 0 16 -10 28 -21z m-386 -70 c0 -4 -15 -18 -34 -33 l-34 -26 -21 34 c-27
43 -26 50 6 76 l27 21 28 -33 c15 -18 28 -36 28 -39z m871 14 c73 -77 216
-251 378 -458 333 -428 458 -671 844 -1641 254 -638 379 -928 528 -1225 51
-103 69 -149 67 -172 -3 -30 -7 -25 -59 63 -190 323 -363 672 -669 1350 -258
572 -417 884 -573 1124 -70 107 -442 610 -581 785 -48 61 -65 90 -60 104 13
40 56 127 63 127 4 0 32 -26 62 -57z m-1104 1 l23 -39 -26 -22 c-14 -13 -29
-23 -34 -23 -5 0 -18 21 -30 47 l-21 47 23 18 c30 23 39 19 65 -28z m483 21
c25 -26 24 -28 -28 -94 l-19 -23 -21 30 c-28 38 -28 44 4 81 31 37 34 38 64 6z
m-137 -17 l20 -27 -28 -33 c-15 -18 -32 -33 -37 -33 -5 0 -19 17 -30 37 l-21
36 29 26 c34 30 41 29 67 -6z m521 -90 c-16 -35 -33 -65 -38 -68 -5 -3 -18 7
-29 23 l-21 27 33 67 32 66 26 -26 27 -26 -30 -63z m-185 78 l23 -25 -33 -55
c-19 -30 -37 -56 -41 -56 -4 0 -16 14 -28 30 l-22 31 32 49 c18 28 35 50 39
50 4 0 18 -11 30 -24z m-550 -37 l23 -41 -28 -29 c-15 -16 -31 -29 -34 -29 -3
0 -16 21 -29 47 l-23 47 27 23 c14 13 30 23 34 23 4 0 18 -18 30 -41z m411 -9
l21 -29 -35 -52 -34 -51 -26 38 c-14 20 -22 42 -19 48 15 25 58 76 65 76 4 0
16 -13 28 -30z m-275 -17 l25 -37 -32 -33 c-18 -18 -34 -33 -37 -33 -4 0 -16
19 -29 42 l-22 42 27 28 c15 15 30 28 35 28 4 0 19 -17 33 -37z m155 -37 c0
-6 -16 -29 -34 -51 l-34 -40 -23 48 -23 47 34 35 33 34 24 -31 c12 -18 23 -37
23 -42z m515 38 c16 -25 16 -29 -11 -93 -15 -36 -30 -70 -34 -74 -9 -10 -50
40 -50 60 0 20 59 133 69 133 5 0 16 -12 26 -26z m-196 -10 l20 -26 -24 -46
c-13 -26 -30 -55 -38 -66 -13 -18 -15 -17 -36 18 l-23 36 32 55 c17 30 35 55
40 55 5 0 18 -12 29 -26z m-687 -29 l22 -45 -31 -31 -31 -31 -25 53 -25 54 25
23 c13 12 28 22 34 22 5 0 19 -20 31 -45z m137 -42 l22 -46 -34 -35 -35 -35
-21 48 c-12 26 -21 52 -21 57 0 9 50 57 61 58 3 0 15 -21 28 -47z m411 17 l21
-30 -31 -55 c-17 -30 -35 -55 -39 -55 -4 0 -17 17 -29 38 l-21 38 31 47 c17
26 34 47 39 47 4 0 17 -14 29 -30z m408 -23 c92 -117 535 -712 579 -777 136
-203 340 -596 542 -1045 329 -730 523 -1125 698 -1425 89 -151 121 -228 92
-218 -18 6 -195 270 -313 468 -145 243 -223 386 -438 805 -491 957 -547 1056
-808 1420 -207 289 -460 658 -460 671 0 19 58 144 67 144 4 -1 23 -20 41 -43z
m-689 -3 c28 -46 27 -54 -12 -99 l-32 -37 -25 51 -24 51 34 35 c19 19 35 35
36 35 1 0 11 -16 23 -36z m144 -5 l20 -35 -32 -47 c-17 -26 -35 -47 -39 -47
-8 1 -42 66 -42 81 0 17 54 89 64 86 5 -2 18 -19 29 -38z m335 11 l22 -30 -35
-70 c-20 -39 -39 -69 -43 -66 -4 2 -15 20 -25 39 l-19 34 32 62 c18 33 35 61
39 61 4 0 17 -13 29 -30z m-689 -70 l22 -50 -28 -35 c-15 -19 -31 -35 -34 -35
-3 0 -16 25 -28 56 l-23 55 28 30 c15 16 31 29 35 29 3 0 16 -23 28 -50z m551
6 l21 -35 -32 -60 c-17 -34 -34 -61 -38 -61 -4 0 -17 18 -30 40 l-22 40 33 55
c18 30 36 55 40 55 3 0 16 -16 28 -34z m198 -16 l22 -30 -31 -75 c-18 -41 -35
-75 -40 -75 -4 0 -17 16 -30 36 l-22 36 33 69 c19 38 37 69 40 69 3 0 16 -13
28 -30z m-614 -27 l24 -48 -30 -37 c-16 -21 -33 -38 -38 -38 -4 0 -17 23 -29
51 l-21 51 28 33 c15 19 30 34 34 34 4 1 18 -20 32 -46z m296 -35 c0 -12 -61
-108 -69 -108 -4 0 -17 21 -29 46 l-23 46 37 50 37 50 24 -38 c12 -22 23 -42
23 -46z m-140 -15 c0 -7 -14 -33 -32 -59 l-31 -47 -23 44 c-30 57 -30 64 7
111 l32 39 23 -38 c13 -21 24 -43 24 -50z m10916 13 c333 -71 636 -246 951
-549 81 -78 117 -122 159 -193 30 -51 54 -95 54 -99 0 -3 -38 25 -84 63 -294
242 -581 384 -911 449 -137 27 -461 25 -615 -5 -615 -116 -1156 -449 -1841
-1132 -381 -380 -597 -628 -1399 -1600 -842 -1021 -1388 -1557 -1893 -1855
l-98 -58 -75 18 c-40 11 -74 22 -74 26 0 3 26 22 58 42 31 19 111 75 177 124
471 349 934 852 1725 1873 629 813 850 1089 1094 1370 593 681 1065 1082 1561
1326 353 173 671 242 1020 222 66 -4 152 -14 191 -22z m-10595 -12 l22 -36
-35 -71 -35 -71 -28 44 -28 44 34 63 c19 35 37 63 41 63 3 0 16 -16 29 -36z
m314 -176 c77 -111 203 -290 279 -398 295 -414 364 -533 773 -1335 345 -676
503 -955 729 -1287 83 -122 114 -176 114 -198 0 -16 -3 -30 -7 -29 -19 1 -277
347 -431 577 -160 238 -314 495 -599 1002 -339 602 -362 638 -665 1085 -147
218 -408 621 -408 631 0 11 65 154 70 154 3 0 68 -91 145 -202z m-869 137 l24
-56 -32 -40 c-17 -21 -35 -36 -38 -32 -4 5 -16 32 -29 62 l-21 55 32 33 c17
18 34 33 36 33 1 0 14 -25 28 -55z m412 -4 c12 -21 22 -43 22 -47 0 -5 -15
-36 -34 -68 l-34 -60 -26 52 -26 51 33 55 c17 31 35 56 38 56 3 0 15 -17 27
-39z m-258 -72 c0 -8 -14 -35 -32 -59 l-32 -43 -23 49 c-29 64 -28 69 9 116
l31 40 23 -43 c13 -24 23 -51 24 -60z m120 47 c24 -45 24 -45 5 -79 -10 -20
-27 -46 -36 -59 l-18 -23 -25 54 -24 54 31 48 c18 27 34 49 37 49 3 0 16 -20
30 -44z m343 -28 l21 -35 -30 -68 c-16 -38 -34 -70 -39 -72 -6 -1 -20 15 -32
36 l-23 39 32 71 c17 40 36 70 41 68 5 -1 19 -19 30 -39z m-557 -81 l21 -52
-30 -42 c-17 -24 -34 -43 -37 -43 -4 0 -18 27 -30 60 -24 64 -24 62 24 117 23
27 25 26 52 -40z m418 21 l21 -37 -36 -73 -36 -73 -27 53 -27 53 32 60 c18 33
36 58 42 56 5 -1 19 -19 31 -39z m-149 -130 c-15 -29 -32 -57 -36 -62 -5 -6
-20 15 -34 47 l-26 56 37 58 37 58 25 -52 26 -52 -29 -53z m-135 96 c11 -25
20 -50 20 -54 0 -13 -54 -99 -63 -100 -4 0 -18 25 -32 56 l-25 56 32 44 c17
24 35 44 40 44 5 0 18 -21 28 -46z m587 -164 c129 -202 197 -305 395 -595 157
-230 236 -362 503 -835 507 -899 676 -1160 1068 -1653 10 -12 20 -40 24 -62
l6 -40 -58 55 c-79 76 -298 334 -429 504 -238 310 -412 571 -765 1151 -229
375 -284 463 -442 700 -188 284 -315 489 -457 739 l-51 88 26 57 c14 31 28 64
30 74 3 10 10 16 16 14 5 -1 66 -90 134 -197z m-244 96 l24 -44 -29 -68 c-16
-38 -33 -72 -37 -77 -4 -4 -20 15 -35 42 l-27 50 36 71 c19 38 37 70 39 70 2
0 15 -20 29 -44z m-424 -45 c11 -27 21 -55 21 -62 0 -14 -61 -112 -66 -106 -2
2 -14 32 -27 67 l-24 63 30 44 c17 23 34 43 38 43 3 0 16 -22 28 -49z m281 -1
l24 -50 -29 -61 c-16 -33 -33 -63 -37 -65 -4 -3 -19 19 -34 47 l-26 52 33 64
c19 34 37 63 40 63 3 0 16 -23 29 -50z m-139 -17 l23 -57 -31 -55 c-17 -31
-35 -55 -39 -54 -4 1 -18 27 -30 59 l-24 57 33 53 c17 29 35 54 38 54 4 0 17
-26 30 -57z m11059 -7 c330 -59 632 -214 956 -488 70 -59 88 -82 130 -161 61
-115 64 -127 28 -98 -83 65 -274 182 -384 237 -448 223 -916 258 -1428 109
-367 -107 -752 -322 -1157 -646 -412 -329 -802 -721 -1490 -1499 -647 -731
-783 -879 -1084 -1180 -435 -434 -776 -707 -1126 -899 l-110 -60 -65 16 c-83
20 -91 28 -50 50 59 33 313 204 380 256 339 266 743 667 1145 1137 58 69 128
150 154 180 26 30 200 240 386 465 739 893 936 1116 1321 1495 712 701 1299
1033 1949 1104 79 8 362 -3 445 -18z m-10645 -161 c133 -229 213 -356 400
-640 192 -291 209 -319 465 -740 480 -787 806 -1238 1176 -1625 45 -48 64 -75
68 -102 4 -24 3 -38 -4 -38 -16 0 -360 341 -485 480 -269 301 -547 667 -807
1065 -146 222 -528 814 -603 935 -138 220 -375 650 -375 680 0 24 63 151 71
143 4 -4 46 -75 94 -158z m-209 64 l26 -51 -38 -77 -37 -76 -27 60 -28 60 34
67 c19 38 36 68 39 68 3 0 16 -23 31 -51z m-285 -30 l22 -62 -28 -51 c-15 -28
-31 -55 -35 -59 -3 -4 -19 23 -34 61 l-27 69 32 52 c18 28 35 51 39 51 4 0 18
-28 31 -61z m143 -1 l23 -53 -34 -67 c-18 -38 -35 -68 -37 -68 -1 0 -15 29
-30 63 l-27 64 33 56 c18 32 36 57 40 57 5 0 19 -24 32 -52z m251 -181 c165
-312 232 -421 665 -1092 576 -893 841 -1238 1310 -1706 182 -181 238 -243 243
-267 4 -20 2 -32 -4 -32 -30 0 -401 322 -602 524 -362 361 -660 734 -1024
1281 -194 291 -320 491 -425 674 -96 167 -308 584 -308 605 0 19 59 146 68
146 4 0 39 -60 77 -133z m-185 37 l21 -52 -36 -73 -37 -73 -29 68 -29 68 36
65 c20 35 40 61 44 56 4 -4 18 -31 30 -59z m-147 -4 l26 -61 -31 -57 c-17 -31
-34 -61 -38 -65 -3 -4 -19 24 -34 62 l-27 69 31 56 c18 31 35 56 39 56 4 0 19
-27 34 -60z m12017 -63 c0 -16 -20 5 -36 36 l-15 32 25 -30 c14 -16 26 -34 26
-38z m-685 -17 c136 -29 319 -91 440 -149 197 -94 447 -262 489 -330 35 -56
98 -182 93 -188 -3 -2 -33 13 -68 35 -496 303 -1006 397 -1554 287 -504 -101
-1027 -386 -1600 -870 -351 -297 -671 -610 -1402 -1375 -528 -553 -787 -809
-1041 -1032 -362 -316 -682 -542 -983 -691 l-116 -57 -71 17 c-40 9 -72 20
-72 24 0 4 42 30 93 58 193 103 432 272 667 472 141 119 478 435 549 515 24
27 92 99 151 160 121 126 410 446 771 854 441 498 629 701 923 996 546 545
939 847 1381 1060 249 120 476 193 713 228 148 23 505 15 637 -14z m-11079
-137 c193 -400 474 -863 853 -1403 397 -567 864 -1073 1353 -1464 81 -64 99
-84 104 -112 3 -19 4 -37 1 -40 -13 -13 -434 300 -651 485 -164 139 -533 514
-677 686 -340 409 -652 877 -883 1325 -105 204 -246 506 -246 527 0 15 62 143
70 143 3 0 37 -66 76 -147z m-188 62 l24 -59 -33 -68 c-18 -37 -35 -68 -38
-68 -4 0 -18 31 -33 69 l-27 69 32 61 c18 33 36 59 42 58 5 -2 20 -30 33 -62z
m12033 -30 c43 -48 122 -165 117 -171 -9 -8 -107 105 -138 160 -37 66 -30 70
21 11z m-11937 -188 c94 -211 263 -537 381 -732 524 -873 1122 -1525 1882
-2057 80 -55 147 -107 150 -114 2 -7 3 -24 1 -39 -3 -25 -5 -25 -163 71 -449
270 -783 530 -1131 878 -318 319 -519 572 -746 941 -159 258 -341 623 -478
962 l-34 83 34 70 c19 38 36 70 39 70 3 0 32 -60 65 -133z m12165 -151 c27
-45 48 -83 46 -85 -3 -2 -29 16 -58 40 -41 33 -66 66 -101 130 -25 48 -46 90
-46 95 0 22 115 -109 159 -180z m-961 123 c312 -34 634 -148 922 -326 l94 -59
63 -119 c34 -66 60 -121 58 -123 -1 -2 -43 17 -93 42 -843 423 -1699 335
-2637 -272 -445 -288 -835 -618 -1570 -1326 -699 -674 -816 -784 -1065 -1002
-479 -419 -942 -729 -1310 -878 l-64 -26 -73 16 c-40 9 -73 17 -73 19 0 2 64
37 143 77 547 283 1002 676 2030 1753 888 929 1271 1287 1742 1627 626 450
1266 659 1833 597z m932 -29 c0 -5 -2 -10 -4 -10 -3 0 -8 5 -11 10 -3 6 -1 10
4 10 6 0 11 -4 11 -10z m161 -224 c27 -38 47 -72 44 -74 -14 -14 -101 94 -145
178 -23 45 47 -27 101 -104z m-101 34 c41 -36 75 -79 115 -147 31 -52 54 -97
52 -99 -2 -2 -32 16 -67 41 -57 40 -69 55 -117 146 -29 56 -53 104 -53 106 0
10 18 -2 70 -47z m267 -279 c30 -46 52 -85 51 -87 -2 -2 -28 16 -56 39 -37 29
-68 68 -103 127 -27 47 -49 89 -49 95 0 21 106 -96 157 -174z m-1097 155 c176
-9 410 -60 604 -132 39 -14 142 -60 230 -102 l158 -77 64 -127 c35 -71 61
-128 57 -128 -5 0 -64 23 -132 50 -629 256 -1285 254 -1944 -6 -262 -103 -496
-228 -792 -422 -401 -263 -776 -565 -1495 -1203 -644 -572 -857 -750 -1190
-999 -154 -115 -399 -277 -545 -360 -143 -83 -385 -199 -505 -243 l-95 -36
-70 15 c-38 8 -71 17 -74 19 -2 3 15 13 40 22 217 84 551 283 849 507 360 269
646 524 1350 1206 774 750 1126 1059 1540 1356 497 355 996 578 1445 645 93
13 302 27 360 23 22 -2 87 -6 145 -8z m1070 -67 c0 -6 -4 -7 -10 -4 -5 3 -10
11 -10 16 0 6 5 7 10 4 6 -3 10 -11 10 -16z m-102 -57 c54 -41 72 -64 122
-152 32 -57 57 -106 55 -108 -2 -2 -34 15 -72 37 -67 40 -70 43 -126 150 -31
60 -57 111 -57 115 0 13 17 4 78 -42z m203 -79 c47 -50 123 -152 118 -158 -10
-10 -92 74 -129 133 -45 70 -41 80 11 25z m-21 -64 c43 -35 167 -215 156 -226
-3 -3 -32 14 -65 37 -52 37 -68 56 -116 141 -30 55 -55 102 -55 105 0 7 11 -1
80 -57z m-894 -80 c274 -27 561 -104 814 -220 l66 -30 62 -125 c34 -68 62
-128 62 -132 0 -4 -64 14 -142 39 -655 215 -1312 192 -1972 -68 -458 -181
-926 -465 -1551 -942 -146 -111 -289 -225 -865 -687 -864 -692 -1361 -1015
-1875 -1217 -214 -84 -250 -93 -336 -78 -39 7 -67 16 -62 20 4 4 46 22 93 40
214 83 507 241 770 418 382 256 657 481 1576 1293 765 676 1177 993 1632 1254
605 347 1172 490 1728 435z m848 -33 c65 -42 72 -50 132 -157 34 -63 61 -116
58 -118 -2 -3 -36 11 -75 30 l-71 34 -64 128 c-35 70 -61 127 -57 127 5 0 39
-20 77 -44z m308 -144 c33 -46 58 -86 55 -89 -15 -14 -116 84 -164 160 -29 45
-53 86 -53 90 0 21 109 -87 162 -161z m-31 81 c13 -16 12 -17 -3 -4 -10 7 -18
15 -18 17 0 8 8 3 21 -13z m-97 -56 c48 -34 72 -61 123 -145 36 -57 62 -106
60 -109 -3 -2 -35 13 -72 34 -64 37 -68 42 -126 146 -32 59 -59 110 -59 112 0
11 19 2 74 -38z m324 -214 c20 -29 21 -32 5 -27 -10 3 10 -21 43 -53 34 -32
83 -86 109 -121 27 -34 50 -60 53 -57 3 3 -3 14 -13 25 -10 11 -16 23 -12 26
6 6 152 -139 167 -167 8 -15 7 -17 -5 -13 -29 11 -15 -5 43 -49 53 -41 193
-197 176 -197 -4 0 -35 18 -68 40 -43 28 -78 62 -116 115 -30 42 -55 82 -55
88 -1 17 -107 121 -125 122 -8 1 -39 19 -68 40 -60 42 -170 194 -151 206 7 4
-1 16 -21 30 -31 23 -120 139 -120 156 1 10 128 -122 158 -164z m-144 78 c62
-50 199 -231 174 -231 -7 1 -40 20 -73 43 -46 33 -71 62 -117 135 -77 125 -77
127 16 53z m-213 -17 l68 -36 66 -120 c36 -66 64 -123 61 -125 -3 -3 -41 10
-84 28 l-80 34 -48 100 c-71 148 -74 155 -62 155 5 0 41 -16 79 -36z m-857
-34 c259 -17 521 -70 771 -157 l110 -38 68 -133 c38 -74 66 -136 63 -139 -3
-3 -56 8 -118 25 -286 77 -468 102 -779 109 -414 9 -713 -37 -1104 -170 -599
-204 -1106 -503 -2235 -1322 -674 -488 -981 -695 -1335 -897 -340 -194 -639
-325 -939 -413 -123 -36 -129 -37 -192 -25 -35 7 -64 16 -64 21 0 4 19 13 43
20 92 24 310 116 486 205 356 178 695 400 1176 768 137 105 163 126 725 577
619 496 928 725 1255 931 634 399 1176 601 1710 638 161 11 195 11 359 0z
m1028 -62 c29 -17 61 -38 70 -46 21 -18 142 -221 136 -227 -3 -3 -36 10 -75
29 -76 37 -76 37 -157 189 -26 48 -43 87 -37 87 6 0 34 -14 63 -32z m194 -122
c55 -37 78 -62 135 -147 37 -57 67 -105 65 -106 -2 -2 -37 14 -77 36 -72 39
-76 43 -136 145 -35 57 -63 107 -63 110 0 11 11 6 76 -38z m-206 -70 l64 -31
68 -125 c37 -68 66 -126 64 -127 -1 -2 -40 10 -87 25 l-84 28 -67 129 c-37 72
-67 134 -68 138 0 11 33 0 110 -37z m397 -64 c54 -41 202 -217 191 -227 -2 -2
-34 15 -72 38 -58 36 -79 57 -132 132 -87 124 -85 132 13 57z m-218 -16 c63
-32 67 -37 137 -152 40 -65 69 -120 66 -122 -4 -1 -41 11 -82 27 l-75 28 -67
119 c-37 66 -67 122 -68 127 0 14 25 6 89 -27z m-835 -21 c209 -22 458 -71
602 -118 l69 -22 67 -130 c37 -71 67 -135 68 -141 0 -7 -50 0 -136 17 -326 67
-734 94 -1039 70 -508 -41 -993 -189 -1577 -481 -338 -169 -611 -329 -1140
-667 -746 -475 -873 -555 -1013 -640 -605 -363 -1093 -584 -1550 -700 -114
-29 -150 -34 -198 -29 -103 10 -100 20 14 55 459 141 890 362 1499 772 193
129 400 276 890 630 734 531 1092 761 1525 979 468 236 880 366 1295 409 140
14 473 12 624 -4z m1021 -78 c65 -36 75 -46 143 -149 40 -60 72 -112 69 -114
-2 -2 -39 12 -83 32 l-80 35 -67 114 c-37 63 -67 117 -67 120 0 8 1 8 85 -38z
m296 -64 c13 -16 12 -17 -3 -4 -10 7 -18 15 -18 17 0 8 8 3 21 -13z m-374
-196 c39 -72 68 -133 65 -134 -4 -2 -45 8 -92 21 l-85 23 -67 129 c-37 71 -68
134 -68 141 0 7 31 1 88 -18 l87 -30 72 -132z m269 147 c62 -39 85 -61 144
-142 38 -53 68 -97 66 -99 -2 -2 -38 13 -80 34 -71 35 -80 43 -129 118 -86
129 -90 135 -82 135 4 0 40 -21 81 -46z m-185 -78 c30 -12 48 -36 109 -136 40
-67 70 -123 67 -126 -2 -3 -42 8 -87 23 l-83 28 -68 125 c-38 69 -69 128 -69
132 0 7 40 -7 131 -46z m504 -85 c67 -69 61 -80 -12 -23 -45 37 -123 123 -123
137 0 11 71 -49 135 -114z m-121 36 c56 -37 206 -196 206 -218 0 -5 -32 9 -71
29 -62 33 -79 48 -140 130 -91 122 -91 124 5 59z m-76 -165 c40 -63 71 -116
69 -119 -3 -3 -41 8 -85 23 l-80 28 -71 119 c-39 65 -71 122 -71 127 0 5 37
-8 82 -28 l82 -37 74 -113z m-1008 133 c136 -16 352 -54 445 -77 l50 -13 73
-138 c41 -76 71 -141 68 -144 -3 -3 -72 4 -153 16 -259 37 -381 45 -678 45
-314 0 -476 -14 -720 -60 -484 -93 -925 -254 -1545 -564 -282 -140 -403 -206
-940 -508 -201 -113 -464 -259 -585 -325 -763 -414 -1294 -628 -1829 -737
-122 -25 -146 -27 -202 -18 -35 6 -64 14 -64 17 0 4 44 17 98 30 242 57 562
177 879 331 388 189 675 358 1433 846 662 425 979 615 1323 793 568 295 1087
465 1553 511 60 5 127 12 149 14 88 9 518 -4 645 -19z m1058 -84 c73 -37 81
-45 151 -141 40 -56 71 -104 68 -106 -3 -3 -40 9 -83 26 l-79 31 -70 106 c-74
111 -80 123 -71 123 4 0 41 -18 84 -39z m232 -25 c50 -37 192 -180 181 -184
-24 -8 -134 75 -190 143 -34 40 -61 76 -61 80 0 7 26 -7 70 -39z m-661 -15
c41 -11 75 -22 76 -23 16 -25 145 -262 145 -268 0 -4 -17 -4 -37 0 -21 5 -64
13 -95 20 l-57 11 -71 139 c-38 76 -70 142 -70 145 0 3 8 4 18 1 9 -3 50 -14
91 -25z m632 -68 c62 -35 87 -57 148 -133 41 -50 72 -93 69 -95 -3 -3 -40 11
-84 31 -76 34 -82 39 -144 126 -76 106 -86 122 -73 117 4 -2 42 -23 84 -46z
m-417 3 l59 -21 79 -127 c88 -145 90 -140 -36 -110 l-69 17 -73 130 c-41 72
-74 133 -74 138 0 9 37 1 114 -27z m-10917 -18 c-3 -7 -5 -2 -5 12 0 14 2 19
5 13 2 -7 2 -19 0 -25z m11103 -47 l75 -27 79 -117 c44 -64 77 -120 74 -123
-3 -3 -43 5 -88 17 l-83 23 -52 80 c-87 135 -108 176 -93 175 7 0 47 -12 88
-28z m490 -27 c30 -23 73 -61 95 -85 l40 -42 -50 28 c-61 34 -76 47 -129 110
-45 54 -38 52 44 -11z m-11580 -20 c0 -14 -4 -22 -10 -19 -5 3 -10 17 -10 31
0 14 4 22 10 19 6 -3 10 -17 10 -31z m11524 -9 c68 -42 216 -182 216 -206 0
-5 -35 8 -78 30 -65 33 -88 51 -142 117 -69 82 -84 104 -76 104 3 0 39 -20 80
-45z m-219 -28 c51 -21 68 -35 118 -98 78 -101 111 -148 105 -154 -2 -3 -42 8
-89 23 l-84 28 -77 114 c-43 63 -78 118 -78 122 0 4 10 3 23 -1 12 -5 49 -21
82 -34z m-1035 3 c124 -11 302 -35 390 -51 l55 -11 76 -141 c42 -78 75 -144
73 -147 -1 -3 -54 0 -116 6 -501 55 -1077 36 -1513 -51 -389 -78 -793 -206
-1267 -404 -263 -110 -480 -209 -988 -454 -871 -419 -1210 -568 -1615 -712
-422 -150 -1004 -280 -1138 -255 -85 17 -84 17 78 50 231 47 552 150 830 265
393 164 780 362 1505 773 1100 622 1654 875 2255 1027 261 66 463 97 785 119
89 6 465 -3 590 -14z m-10265 -61 c8 -34 -1 -51 -15 -29 -12 19 -13 73 -1 65
5 -3 12 -19 16 -36z m25 19 c0 -19 -2 -20 -10 -8 -13 19 -13 30 0 30 6 0 10
-10 10 -22z m11471 -47 c79 -37 89 -45 162 -136 44 -53 77 -98 75 -101 -6 -6
-153 45 -170 59 -18 14 -158 201 -158 210 0 10 1 10 91 -32z m274 -43 c59 -41
172 -148 157 -148 -36 0 -133 64 -199 133 -40 41 -73 78 -73 82 0 7 53 -23
115 -67z m-929 46 l81 -16 76 -134 c43 -73 77 -137 77 -142 0 -8 -155 10 -185
22 -11 4 -155 264 -155 280 0 9 18 7 106 -10z m-10804 -59 c3 -14 2 -25 -2
-25 -9 0 -20 25 -20 46 0 23 17 7 22 -21z m23 25 c3 -5 1 -10 -4 -10 -6 0 -11
5 -11 10 0 6 2 10 4 10 3 0 8 -4 11 -10z m11007 -18 l62 -17 82 -130 c51 -82
77 -131 69 -133 -12 -3 -176 25 -180 31 -8 9 -155 270 -155 274 0 5 35 -2 122
-25z m-11066 -9 c3 -16 7 -33 9 -40 2 -7 0 -15 -4 -17 -10 -6 -31 38 -31 64 0
30 19 24 26 -7z m11706 -42 c71 -34 94 -51 162 -126 43 -47 77 -88 74 -90 -2
-3 -41 10 -86 27 -79 30 -86 35 -149 112 -36 45 -73 89 -81 99 -21 24 -13 22
80 -22z m-392 -17 c18 -4 48 -39 108 -128 45 -67 82 -124 82 -128 0 -3 -17 -2
-37 2 -21 5 -64 13 -95 20 l-57 11 -76 120 c-42 66 -78 126 -81 134 -5 11 8
10 63 -6 37 -11 79 -22 93 -25z m-11240 -17 c0 -18 -2 -19 -10 -7 -13 20 -13
43 0 35 6 -3 10 -16 10 -28z m-24 -27 c5 -33 5 -34 -10 -16 -9 11 -16 31 -16
45 0 35 18 14 26 -29z m-36 -33 c0 -25 -2 -28 -15 -17 -8 7 -15 28 -15 49 1
34 2 35 15 17 8 -11 15 -33 15 -49z m11960 19 c55 -36 141 -108 137 -113 -13
-13 -207 128 -207 150 0 9 7 5 70 -37z m-505 9 l81 -24 87 -116 c99 -130 100
-128 -32 -96 l-74 17 -84 122 c-46 67 -78 122 -71 122 6 0 48 -11 93 -25z
m455 -43 c67 -37 237 -179 226 -189 -3 -3 -41 9 -84 27 -70 29 -87 42 -156
116 -43 46 -73 84 -67 84 6 0 43 -17 81 -38z m-11836 2 c3 -9 6 -23 6 -32 0
-21 -15 -5 -25 26 -7 25 9 31 19 6z m23 -6 c-3 -8 -6 -5 -6 6 -1 11 2 17 5 13
3 -3 4 -12 1 -19z m-47 -52 c-1 -29 -1 -30 -15 -12 -8 11 -15 31 -15 44 0 21
2 22 15 12 8 -7 15 -27 15 -44z m11618 27 l83 -28 86 -103 c47 -57 83 -105 80
-108 -2 -3 -44 5 -92 18 l-88 23 -75 100 c-41 55 -79 106 -85 113 -14 18 -1
16 91 -15z m-11672 -4 c10 -16 23 -79 16 -79 -17 0 -42 37 -42 62 0 28 13 37
26 17z m10629 -15 c99 -8 193 -18 209 -22 23 -6 41 -30 108 -150 44 -79 78
-145 76 -147 -2 -3 -76 0 -163 5 -455 27 -1000 1 -1398 -66 -609 -102 -1147
-276 -2342 -757 -929 -374 -1380 -530 -1870 -645 -398 -94 -814 -147 -895
-114 -23 9 -21 10 25 17 107 15 406 78 530 111 491 133 955 319 1775 714 1077
519 1375 649 1845 806 504 168 873 239 1395 268 123 7 525 -5 705 -20z
m-10495 -57 c0 -5 -7 -4 -15 3 -8 7 -15 20 -15 29 1 13 3 13 15 -3 8 -11 15
-24 15 -29z m-30 -20 c0 -16 -3 -17 -15 -7 -8 7 -15 24 -15 39 1 25 1 25 15 7
8 -11 15 -29 15 -39z m10967 23 c11 0 173 -262 173 -280 0 -9 -125 -3 -173 9
-25 5 -41 28 -107 146 -43 77 -76 143 -74 146 2 3 41 0 86 -7 46 -8 88 -14 95
-14z m873 -28 c30 -11 209 -194 195 -199 -6 -1 -47 8 -93 20 l-83 23 -85 100
c-46 54 -84 102 -84 106 0 6 39 -7 150 -50z m197 10 c65 -36 194 -134 201
-153 2 -5 -30 6 -71 24 -52 22 -96 52 -148 99 -41 37 -69 68 -63 68 6 0 43
-17 81 -38z m-12071 -32 l7 -35 -21 19 c-14 12 -22 31 -22 50 0 27 2 29 15 16
8 -9 18 -31 21 -50z m11184 19 c44 -10 47 -13 128 -140 46 -72 82 -133 79
-135 -5 -5 -188 13 -192 18 -3 4 -157 261 -163 272 -5 10 71 2 148 -15z
m-11231 -38 c7 -23 10 -45 6 -49 -12 -12 -45 39 -45 70 0 43 22 31 39 -21z
m131 -25 c-1 -21 -1 -21 -15 -2 -8 11 -15 29 -15 40 1 21 1 21 15 2 8 -11 15
-29 15 -40z m20 33 c0 -6 -4 -7 -10 -4 -5 3 -10 11 -10 16 0 6 5 7 10 4 6 -3
10 -11 10 -16z m11257 -5 l83 -17 80 -114 c104 -146 104 -148 54 -140 -21 4
-65 9 -98 13 l-59 7 -83 128 c-46 71 -84 131 -84 134 0 8 20 6 107 -11z
m-11321 -11 c7 -10 14 -29 14 -43 0 -21 -2 -22 -14 -10 -17 17 -32 70 -21 70
4 0 14 -8 21 -17z m12002 -19 c76 -31 98 -46 169 -117 45 -44 81 -82 80 -84
-7 -7 -174 51 -191 65 -32 29 -158 172 -151 172 3 0 45 -16 93 -36z m-12024
-52 c5 -29 4 -32 -13 -23 -22 12 -31 32 -31 69 0 26 0 26 19 7 10 -11 21 -35
25 -53z m11578 29 l67 -16 90 -115 c49 -63 84 -117 79 -119 -6 -2 -50 2 -99 9
l-88 13 -81 115 c-99 140 -102 145 -64 136 16 -4 59 -15 96 -23z m-11625 -65
l6 -38 -26 17 c-22 14 -27 25 -27 58 l0 41 20 -20 c11 -11 23 -37 27 -58z
m12431 -23 c34 -25 62 -47 62 -49 0 -2 -24 6 -52 17 -50 19 -142 82 -170 116
-19 24 87 -33 160 -84z m-12274 71 c11 -28 6 -39 -9 -20 -8 11 -15 23 -15 28
0 14 18 9 24 -8z m-19 -44 c8 -25 8 -25 -14 -6 -11 11 -21 28 -21 40 0 18 2
18 14 6 8 -8 17 -26 21 -40z m-30 -35 l7 -30 -26 24 c-15 14 -26 36 -26 50 0
25 0 25 19 6 10 -11 22 -33 26 -50z m11720 44 l84 -21 92 -106 c50 -58 87
-108 81 -110 -15 -5 -184 26 -192 35 -14 16 -118 149 -145 186 -15 20 -22 37
-16 37 7 0 50 -10 96 -21z m487 -27 c61 -27 218 -145 218 -163 0 -4 -39 6 -87
22 -81 27 -94 35 -161 102 -39 39 -75 76 -79 80 -9 10 23 -2 109 -41z m-12270
1 c21 -24 29 -73 13 -73 -18 0 -34 22 -41 58 -7 36 5 41 28 15z m143 -33 c16
-30 9 -40 -13 -18 -12 12 -17 48 -7 48 2 0 11 -13 20 -30z m25 20 c0 -5 -4
-10 -10 -10 -5 0 -10 5 -10 10 0 6 5 10 10 10 6 0 10 -4 10 -10z m-196 -77 c6
-38 0 -40 -31 -14 -17 14 -23 30 -23 57 l0 39 24 -25 c13 -14 26 -40 30 -57z
m12034 55 c74 -20 81 -25 170 -112 50 -50 92 -96 92 -102 0 -8 -11 -10 -37 -4
-21 5 -64 13 -95 20 -55 11 -59 14 -142 110 -48 54 -86 101 -86 104 0 10 19 7
98 -16z m-11893 -19 c9 -17 14 -34 10 -37 -8 -9 -45 36 -45 54 0 24 19 15 35
-17z m-52 -6 c8 -10 19 -31 23 -47 6 -26 5 -27 -15 -17 -11 7 -21 13 -21 14 0
1 -4 17 -9 35 -11 36 -2 41 22 15z m10826 -21 l65 -7 82 -140 c46 -77 83 -143
83 -146 1 -3 -171 -9 -381 -12 -1102 -18 -1707 -132 -3113 -586 -962 -310
-1191 -379 -1570 -476 -425 -109 -704 -162 -1060 -205 -213 -26 -504 -38 -531
-22 -16 9 -16 11 -3 12 48 1 344 45 479 71 541 106 1026 264 1989 651 998 400
1326 520 1776 648 435 123 852 194 1285 220 159 9 784 3 899 -8z m1596 -13
c80 -36 225 -131 208 -136 -6 -2 -39 6 -74 17 -54 19 -136 72 -213 142 -20 17
12 8 79 -23z m-12468 -1 c21 -24 39 -78 26 -78 -21 1 -51 38 -55 68 -5 38 1
40 29 10z m193 -21 c0 -5 -7 -4 -15 3 -8 7 -15 20 -15 29 1 13 3 13 15 -3 8
-11 15 -24 15 -29z m12030 12 c68 -20 83 -30 168 -107 51 -46 91 -87 88 -89
-6 -7 -179 29 -194 40 -38 30 -174 189 -157 184 11 -3 54 -16 95 -28z m-12066
-10 c10 -17 16 -33 13 -35 -6 -6 -47 45 -47 57 0 18 16 8 34 -22z m10977 12
c23 -1 38 -20 113 -140 47 -76 86 -141 86 -145 0 -8 -158 -6 -189 3 -18 5 -46
44 -106 146 -45 77 -81 142 -79 145 1 3 36 3 76 -1 40 -4 85 -8 99 -8z m1414
-9 c-3 -3 -11 0 -18 7 -9 10 -8 11 6 5 10 -3 15 -9 12 -12z m-12439 -6 c17
-17 37 -66 26 -66 -17 1 -41 28 -47 53 -8 30 -1 34 21 13z m-146 -36 c5 -10
10 -31 10 -45 l0 -26 -30 21 c-23 17 -30 29 -30 56 0 31 2 34 20 24 11 -6 24
-19 30 -30z m11417 17 c7 -7 50 -68 97 -137 l86 -125 -33 -3 c-17 -2 -64 -1
-104 3 l-71 7 -73 116 c-40 64 -79 128 -88 141 l-15 24 94 -7 c52 -4 100 -13
107 -19z m-11310 -19 c23 -25 39 -68 26 -68 -18 1 -44 30 -53 59 -10 37 -1 40
27 9z m11446 8 c48 -7 91 -17 96 -22 37 -43 179 -244 173 -247 -9 -4 -201 9
-206 14 -5 6 -161 242 -170 257 -9 15 -3 15 107 -2z m-11273 -17 c0 -6 -4 -7
-10 -4 -5 3 -10 11 -10 16 0 6 5 7 10 4 6 -3 10 -11 10 -16z m12378 -110 c51
-40 89 -75 85 -76 -5 -2 -47 5 -95 16 -86 19 -88 20 -173 97 -47 43 -85 81
-85 85 0 4 39 -5 88 -20 74 -24 100 -38 180 -102z m-12392 74 c-4 -4 -14 1
-22 11 -22 31 -17 43 8 19 12 -13 18 -26 14 -30z m-26 -24 c0 -16 -18 -10 -34
13 -26 37 -19 57 9 25 14 -15 25 -32 25 -38z m11555 41 c39 -6 75 -16 81 -23
6 -7 50 -60 98 -119 l86 -108 -43 0 c-24 0 -72 3 -106 6 l-62 7 -87 119 c-48
65 -89 123 -91 129 -2 7 7 9 25 5 16 -3 61 -10 99 -16z m-11736 -7 c11 -10 24
-33 27 -52 l7 -33 -29 18 c-16 10 -30 18 -30 18 -1 1 -5 16 -9 34 -8 36 2 41
34 15z m12723 -29 c76 -38 140 -76 135 -80 -15 -15 -237 99 -237 121 0 6 40
-10 102 -41z m-12604 9 c21 -19 39 -63 25 -63 -16 1 -42 27 -52 53 -12 31 -2
35 27 10z m11831 -9 l88 -16 90 -101 c88 -100 104 -124 80 -120 -7 1 -51 4
-98 8 l-86 7 -92 112 c-50 63 -91 116 -91 120 0 9 12 8 109 -10z m-12007 -14
c24 -18 44 -80 27 -80 -14 0 -59 23 -59 30 0 4 -3 22 -6 39 -8 36 3 39 38 11z
m324 -18 c-9 -8 -26 10 -26 26 1 15 2 15 15 -2 8 -11 13 -21 11 -24z m-169
-31 c10 -25 10 -31 1 -31 -24 1 -48 27 -55 61 -6 34 -6 34 17 18 14 -9 30 -30
37 -48z m153 -3 c0 -6 -11 -1 -25 12 -14 13 -25 31 -25 39 1 11 8 8 25 -12 14
-15 25 -33 25 -39z m12405 35 c78 -26 272 -142 249 -150 -6 -2 -47 5 -91 16
-71 17 -91 27 -159 81 -95 75 -101 80 -89 80 6 0 46 -12 90 -27z m-12435 -63
c0 -18 -18 -10 -39 16 -34 43 -26 65 9 26 17 -18 30 -37 30 -42z m11974 49
c64 -12 66 -13 168 -117 l103 -104 -50 5 c-27 3 -75 9 -106 12 l-56 7 -91 103
c-51 57 -92 107 -92 111 0 3 14 4 30 0 17 -3 59 -11 94 -17z m-12177 -17 c20
-15 50 -82 37 -82 -19 0 -63 33 -68 52 -13 51 -6 59 31 30z m147 -34 c25 -35
21 -50 -9 -36 -19 8 -45 52 -45 75 0 10 41 -20 54 -39z m161 22 c3 -5 1 -10
-4 -10 -6 0 -11 5 -11 10 0 6 2 10 4 10 3 0 8 -4 11 -10z m-27 -12 c16 -16 15
-29 -2 -22 -16 6 -30 34 -18 34 5 0 13 -5 20 -12z m12116 -4 c80 -17 83 -18
178 -103 54 -47 98 -88 98 -91 0 -6 -146 6 -185 15 -30 7 -214 195 -191 195
11 0 55 -7 100 -16z m-12145 -20 c12 -15 21 -31 21 -37 0 -16 -43 18 -51 41
-11 30 5 28 30 -4z m12619 2 c79 -27 252 -118 235 -123 -6 -2 -44 5 -85 15
-53 14 -97 34 -151 71 -103 69 -103 72 1 37z m-12933 2 c14 -6 28 -23 32 -37
43 -184 126 -413 194 -541 158 -293 356 -469 640 -570 l84 -30 -59 6 c-33 3
-93 15 -134 25 -328 86 -563 342 -701 764 -55 168 -105 395 -86 395 2 0 16 -5
30 -12z m140 -4 c27 -18 52 -74 32 -74 -22 1 -56 34 -62 63 -8 31 -3 33 30 11z
m140 -29 c26 -25 32 -45 15 -45 -14 0 -60 46 -60 60 0 17 20 11 45 -15z
m12560 -71 c39 -29 84 -65 100 -79 l30 -26 -77 6 c-43 4 -89 10 -102 13 -25 7
-206 157 -206 171 0 4 42 -1 93 -12 82 -17 99 -25 162 -73z m-12754 57 c20
-10 32 -31 54 -99 172 -531 478 -876 885 -1003 83 -26 86 -27 78 -34 -3 -3
-52 4 -108 15 -451 92 -747 415 -915 1002 -37 125 -40 142 -27 136 4 -2 19 -9
33 -17z m333 3 c4 -10 1 -14 -6 -12 -15 5 -23 28 -10 28 5 0 13 -7 16 -16z
m-183 -23 c31 -32 37 -51 15 -51 -20 0 -53 31 -61 58 -9 31 10 28 46 -7z m154
9 c10 -11 15 -23 12 -27 -8 -7 -47 25 -47 39 0 14 16 9 35 -12z m-44 -13 c20
-15 43 -57 31 -57 -5 0 -21 11 -36 25 -37 35 -34 62 5 32z m10880 -142 c48
-77 88 -145 88 -151 1 -7 -68 -13 -211 -18 -605 -19 -1198 -73 -1656 -151
-419 -72 -799 -156 -1697 -375 -811 -198 -1091 -261 -1465 -329 -515 -94 -909
-137 -1346 -148 -321 -8 -364 6 -92 30 534 48 1065 162 1833 394 142 42 518
162 920 293 1440 467 2171 601 3279 596 l259 -1 88 -140z m1707 125 c67 -16
100 -31 172 -80 50 -33 90 -63 90 -66 0 -7 -106 4 -160 15 -30 7 -210 132
-210 147 0 8 24 4 108 -16z m386 -54 c33 -14 57 -28 55 -30 -11 -11 -135 28
-189 60 -33 19 -60 37 -60 39 0 6 128 -39 194 -69z m-13150 53 c18 -9 33 -31
53 -83 39 -103 140 -299 202 -391 190 -283 424 -472 706 -570 44 -16 84 -32
90 -37 16 -14 -46 -9 -120 11 -420 111 -722 411 -911 908 -43 114 -60 173 -50
173 3 0 16 -5 30 -11z m11294 -130 c51 -78 92 -142 90 -144 -7 -7 -204 -9
-214 -2 -12 7 -174 269 -174 281 0 3 46 6 103 6 l102 -1 93 -140z m49 132 l82
-1 96 -134 c52 -74 95 -137 95 -140 0 -3 -47 -6 -105 -6 l-106 0 -85 130 c-98
149 -103 160 -77 155 10 -2 55 -4 100 -4z m-11193 -26 c14 -13 26 -31 26 -40
0 -14 -3 -14 -28 -1 -32 17 -61 66 -38 66 7 0 25 -11 40 -25z m156 -18 c0 -6
-9 -2 -20 8 -11 10 -20 23 -20 28 0 6 9 2 20 -8 11 -10 20 -23 20 -28z m11375
-4 c11 -15 53 -70 93 -121 39 -51 72 -97 72 -102 0 -6 -43 -10 -103 -10 l-104
0 -91 129 c-51 71 -92 132 -92 136 0 5 46 5 102 2 98 -6 104 -8 123 -34z
m-11417 7 c24 -22 30 -46 10 -34 -23 13 -48 37 -48 46 0 14 15 9 38 -12z
m11588 4 c38 -4 48 -13 137 -119 54 -63 97 -117 97 -120 0 -3 -47 -5 -105 -5
l-104 0 -96 123 c-52 67 -95 125 -95 129 0 7 69 4 166 -8z m-11771 -6 c19 -8
40 -39 72 -103 113 -225 240 -402 400 -556 162 -156 334 -264 541 -339 51 -19
60 -25 47 -33 -31 -17 -192 35 -339 110 -122 61 -218 133 -337 252 -160 160
-276 339 -385 594 -43 100 -43 95 1 75z m12923 -13 c82 -19 291 -125 245 -125
-6 0 -47 5 -90 11 -65 9 -90 18 -149 55 -40 24 -83 53 -95 65 -22 18 -22 20
-4 15 11 -3 53 -13 93 -21z m-936 0 l57 -6 101 -109 c57 -61 95 -109 88 -112
-7 -2 -57 -1 -110 2 l-97 5 -95 112 c-53 62 -96 115 -96 119 0 3 21 3 48 0 26
-3 73 -8 104 -11z m-11838 -16 c29 -23 34 -39 11 -39 -17 0 -55 35 -55 50 0
16 15 12 44 -11z m141 0 c11 -17 -1 -21 -15 -4 -8 9 -8 15 -2 15 6 0 14 -5 17
-11z m11901 -5 l82 -6 108 -104 109 -103 -107 0 -106 -1 -101 106 c-100 106
-117 130 -83 120 9 -3 54 -8 98 -12z m-11925 -15 c11 -11 18 -23 16 -26 -8 -8
-44 15 -51 32 -8 22 10 19 35 -6z m-165 -7 c12 -9 42 -53 68 -97 154 -262 357
-484 589 -643 91 -62 296 -169 370 -192 40 -13 41 -30 1 -30 -60 0 -297 102
-411 176 -250 164 -447 388 -609 694 -22 41 -43 83 -47 93 -8 22 11 22 39 -1z
m131 -16 c31 -27 27 -44 -6 -27 -23 13 -47 51 -32 51 5 0 23 -11 38 -24z
m12208 11 l80 -12 98 -85 c53 -46 97 -89 97 -93 0 -5 -14 -7 -31 -3 -17 3 -64
6 -103 6 l-71 1 -105 99 c-119 112 -120 110 35 87z m720 -7 c57 -11 219 -74
240 -92 12 -10 -3 -10 -90 2 -68 10 -235 83 -235 104 0 4 6 6 13 3 7 -2 39
-10 72 -17z m-12982 -21 c13 -6 31 -24 41 -39 32 -56 140 -196 224 -293 100
-116 265 -260 395 -347 88 -59 304 -173 377 -199 34 -13 35 -13 12 -24 -30
-14 -86 5 -248 83 -315 152 -563 383 -773 719 -73 116 -74 121 -28 100z m177
-20 c0 -6 -7 -6 -20 1 -11 6 -20 15 -20 21 0 6 7 6 20 -1 11 -6 20 -15 20 -21z
m12370 12 c30 -7 230 -143 230 -156 0 -3 -45 -5 -100 -5 l-99 0 -89 74 c-131
111 -131 110 -47 102 39 -4 86 -11 105 -15z m-12403 -26 c28 -24 18 -34 -16
-15 -20 10 -36 40 -21 40 5 0 22 -11 37 -25z m12663 -9 c19 -7 76 -39 125 -72
103 -67 100 -71 -42 -59 l-82 7 -92 69 c-51 38 -95 71 -98 75 -10 10 151 -7
189 -20z m-12645 -78 c226 -287 510 -519 827 -672 81 -39 148 -74 148 -77 1
-41 -190 31 -374 141 -255 152 -460 343 -645 600 -33 47 -61 88 -61 93 0 21
61 -29 105 -85z m13081 83 c16 -5 64 -19 107 -32 42 -12 77 -25 77 -29 0 -15
-134 13 -192 40 -61 28 -56 41 8 21z m-12996 -16 c11 -13 10 -14 -4 -9 -9 3
-16 10 -16 15 0 13 6 11 20 -6z m12727 -6 c65 -9 99 -21 184 -64 l104 -54
-102 -1 -102 0 -83 52 c-46 28 -90 57 -98 65 -18 17 -11 17 97 2z m-12742 -19
c23 -26 4 -26 -26 0 -18 15 -20 19 -8 20 9 0 24 -9 34 -20z m102 -158 c167
-168 268 -253 423 -356 110 -73 285 -170 383 -212 70 -30 79 -39 48 -49 -52
-16 -361 145 -566 297 -116 86 -346 309 -428 416 -86 111 -25 69 140 -96z
m12880 148 c69 -9 240 -68 268 -92 5 -4 -32 -8 -83 -8 -89 0 -93 1 -179 46
-132 69 -132 70 -6 54z m-12907 -25 c7 -8 8 -15 2 -15 -5 0 -15 7 -22 15 -7 8
-8 15 -2 15 5 0 15 -7 22 -15z m13183 -11 c59 -7 245 -62 217 -65 -8 0 -50 0
-94 1 -62 1 -93 8 -150 32 -81 34 -107 53 -61 44 17 -3 56 -8 88 -12z m74 10
c-3 -3 -12 -4 -19 -1 -8 3 -5 6 6 6 11 1 17 -2 13 -5z m-13194 -100 c247 -233
516 -415 799 -545 111 -50 119 -56 85 -64 -45 -12 -284 105 -480 234 -145 96
-283 211 -422 350 -145 147 -132 166 18 25z m13438 50 c112 -19 137 -34 55
-34 -50 0 -196 34 -196 46 0 8 48 4 141 -12z m-13335 -91 c212 -177 450 -329
709 -454 131 -64 165 -89 117 -89 -9 0 -60 20 -113 44 -271 122 -574 326 -776
522 -102 99 -69 87 63 -23z m10766 -46 c54 -76 98 -140 98 -142 0 -4 -75 -12
-164 -18 l-58 -4 -94 142 c-52 78 -94 145 -94 148 0 7 92 14 165 13 l49 -1 98
-138z m235 8 c57 -74 99 -136 95 -138 -4 -3 -54 -6 -111 -8 l-104 -4 -93 133
c-52 72 -94 137 -94 142 0 6 41 10 103 10 l102 0 102 -135z m240 7 l103 -127
-48 -7 c-26 -3 -76 -7 -112 -7 l-65 -1 -98 128 c-53 71 -97 131 -97 135 0 4
48 7 108 7 l107 -1 102 -127z m237 8 c65 -73 102 -122 94 -124 -7 -2 -57 -7
-110 -10 l-97 -5 -101 121 c-55 67 -100 125 -100 130 0 4 46 8 103 8 l104 0
107 -120z m242 1 l102 -106 -47 -7 c-25 -3 -75 -6 -111 -6 l-65 0 -92 103
c-51 57 -96 110 -99 119 -5 14 6 15 102 10 l109 -7 101 -106z m-1197 -31 c50
-78 91 -145 91 -150 0 -6 -10 -10 -22 -10 -42 0 -668 -51 -988 -81 -551 -51
-996 -111 -1720 -234 -1119 -190 -1348 -228 -1605 -265 -646 -93 -1056 -132
-1569 -150 -271 -9 -710 -3 -734 10 -8 4 67 10 165 13 400 15 839 69 1358 168
346 66 688 144 1420 324 960 236 1428 334 1935 405 379 52 1067 104 1456 108
l122 2 91 -140z m1432 45 c57 -53 105 -99 107 -104 1 -4 -46 -11 -105 -14
l-108 -6 -102 102 c-57 56 -103 105 -103 109 0 5 47 8 103 8 l104 0 104 -95z
m246 1 c56 -44 102 -84 102 -87 1 -9 -81 -19 -153 -19 l-61 0 -100 90 c-55 49
-101 94 -103 100 -2 6 35 7 105 4 l108 -7 102 -81z m236 8 c59 -42 107 -80
107 -85 0 -5 -26 -9 -59 -9 -32 0 -78 -3 -102 -6 -43 -5 -47 -3 -139 71 -142
114 -141 105 -19 105 l105 0 107 -76z m252 -2 l110 -67 -55 -7 c-146 -17 -157
-14 -261 58 -52 36 -98 70 -103 75 -6 5 33 9 95 9 l104 0 110 -68z m247 6 c55
-27 97 -52 94 -55 -2 -3 -49 -9 -103 -13 l-97 -7 -103 61 c-57 33 -103 64
-103 69 0 4 48 5 106 1 101 -7 112 -10 206 -56z m-12868 -16 c255 -192 479
-322 816 -473 33 -15 33 -17 14 -27 -40 -21 -453 196 -675 355 -118 84 -258
195 -259 206 0 15 15 6 104 -61z m13098 26 c58 -23 105 -45 103 -49 -3 -3 -48
-9 -101 -12 l-97 -6 -99 50 c-54 27 -98 51 -98 54 0 3 42 5 93 5 85 0 100 -3
199 -42z m249 5 c49 -15 89 -30 89 -33 0 -4 -41 -10 -91 -13 -87 -7 -94 -6
-182 28 -50 20 -93 38 -96 40 -2 3 39 5 93 5 76 0 116 -6 187 -27z m231 10
c48 -9 88 -20 88 -23 0 -4 -37 -10 -82 -13 -67 -6 -97 -3 -158 14 -41 12 -79
25 -84 30 -17 15 142 10 236 -8z m292 -1 c6 -4 -14 -10 -44 -14 -63 -7 -200
10 -200 25 0 11 226 1 244 -11z m476 7 c-34 -14 -184 -24 -207 -14 -26 12 39
22 147 23 66 1 79 -1 60 -9z m-14240 -89 c219 -146 480 -287 713 -385 37 -15
67 -32 67 -36 0 -21 -26 -16 -108 20 -216 95 -419 208 -617 342 -150 102 -165
114 -165 123 0 9 4 6 110 -64z m14030 60 l25 -7 -25 -6 c-99 -24 -141 -27
-206 -17 -94 15 -107 22 -59 30 55 10 234 10 265 0z m293 -19 c4 -4 -34 -20
-85 -35 l-93 -27 -94 15 c-52 9 -96 17 -98 20 -4 4 20 9 145 34 41 9 214 3
225 -7z m-560 -11 c38 -7 65 -16 60 -20 -4 -4 -46 -14 -93 -23 -84 -15 -87
-15 -178 10 -51 14 -89 30 -85 34 20 19 182 19 296 -1z m-275 -27 c56 -15 102
-30 102 -34 0 -4 -43 -14 -96 -24 l-96 -17 -91 32 c-51 18 -96 36 -101 41 -10
8 33 17 109 22 28 2 55 4 60 5 6 1 56 -10 113 -25z m-13258 -111 c145 -81 333
-172 498 -242 69 -29 99 -47 92 -54 -20 -20 -409 165 -655 313 -111 67 -202
134 -110 81 22 -12 101 -57 175 -98z m13005 83 c141 -51 141 -50 39 -69 -49
-9 -100 -16 -113 -16 -25 0 -224 90 -216 98 2 3 42 8 87 12 46 4 88 8 95 9 7
0 55 -15 108 -34z m770 15 c44 -7 84 -14 89 -18 5 -3 -35 -18 -89 -34 l-97
-29 -97 22 c-128 29 -136 35 -70 47 30 6 74 15 99 21 25 5 54 8 65 6 11 -2 56
-9 100 -15z m-1000 -51 c59 -28 104 -53 101 -56 -3 -3 -50 -14 -105 -23 l-99
-17 -100 56 c-55 31 -100 61 -101 66 -1 9 59 17 165 23 19 1 71 -17 139 -49z
m-242 -31 c72 -40 104 -63 96 -68 -8 -4 -58 -13 -111 -20 l-97 -13 -105 69
c-58 38 -106 72 -106 76 0 7 53 12 164 16 43 2 62 -5 159 -60z m993 26 c58
-15 102 -30 97 -35 -4 -4 -51 -19 -103 -33 l-95 -26 -108 36 c-60 20 -105 39
-102 43 6 6 153 37 188 40 10 0 65 -11 123 -25z m-1235 -56 c126 -82 127 -76
-25 -98 l-88 -12 -46 33 c-26 18 -76 56 -112 84 l-64 50 34 6 c19 4 70 7 113
8 l78 1 110 -72z m-255 -20 c60 -45 111 -83 113 -85 10 -7 -10 -12 -112 -27
l-108 -16 -105 90 c-57 49 -106 93 -107 97 -2 7 63 14 179 21 25 2 53 -14 140
-80z m-325 46 c7 -9 53 -50 102 -92 49 -41 85 -78 80 -83 -4 -4 -54 -13 -111
-20 l-103 -12 -57 55 c-31 30 -78 74 -104 98 -27 24 -48 47 -48 51 0 10 45 15
146 17 64 2 84 -1 95 -14z m-11600 -44 c66 -32 110 -48 123 -44 15 4 17 3 8
-4 -14 -9 98 -63 293 -139 99 -39 121 -53 87 -53 -42 0 -474 196 -592 268 -57
36 -28 25 81 -28z m11444 -60 c60 -60 103 -110 95 -110 -8 0 -60 -7 -115 -15
l-100 -15 -107 113 c-59 61 -107 115 -108 119 0 4 35 9 78 11 42 1 93 4 112 5
33 2 44 -7 145 -108z m1733 74 c56 -20 101 -39 98 -41 -2 -2 -50 -17 -107 -33
l-102 -28 -106 45 c-58 26 -108 48 -110 50 -9 7 9 14 75 27 109 22 141 19 252
-20z m-2076 6 c2 -5 48 -54 102 -110 55 -55 97 -103 93 -106 -5 -5 -182 -33
-212 -34 -10 0 -215 232 -215 243 0 15 227 22 232 7z m-149 -126 c65 -75 103
-126 95 -128 -7 -3 -57 -10 -111 -16 -76 -9 -101 -9 -113 1 -25 21 -194 236
-194 247 0 10 30 13 180 20 33 1 41 -6 143 -124z m1967 69 c61 -25 110 -49
110 -53 0 -4 -47 -19 -105 -34 l-105 -26 -98 49 c-152 77 -151 75 -46 93 127
22 124 23 244 -29z m-2215 -88 c55 -69 101 -129 103 -133 2 -8 -217 -38 -222
-30 -61 78 -188 252 -192 262 -6 16 24 22 141 24 l70 2 100 -125z m-242 -18
c53 -73 98 -136 100 -142 1 -5 -38 -15 -88 -22 -135 -17 -137 -17 -162 20 -12
17 -56 81 -97 141 -42 60 -73 112 -70 115 4 5 81 12 199 19 15 1 46 -34 118
-131z m-242 -32 c54 -77 95 -143 91 -146 -4 -4 -279 -37 -612 -73 -333 -37
-1010 -111 -1505 -166 -1505 -166 -1949 -206 -2700 -241 -480 -23 -1407 -11
-1685 21 -51 6 -29 8 105 9 94 2 186 4 205 6 19 2 116 6 215 10 629 21 1249
103 2840 375 933 160 1333 215 1990 275 430 39 865 73 914 72 l44 -2 98 -140z
m2457 84 c76 -41 110 -64 101 -69 -8 -4 -58 -17 -112 -30 l-98 -22 -114 68
c-63 38 -115 72 -115 75 0 6 154 34 204 38 10 0 70 -27 134 -60z m-12337 -32
c101 -41 193 -77 204 -82 13 -4 15 -9 8 -12 -7 -3 -80 23 -163 56 -136 55
-254 109 -239 111 3 0 89 -33 190 -73z m12048 6 c42 -26 94 -58 115 -71 48
-30 45 -32 -86 -62 l-97 -22 -105 73 c-138 94 -139 96 -79 105 26 3 66 10 88
14 72 14 87 11 164 -37z m-212 -69 c59 -42 110 -78 112 -80 10 -9 -14 -18
-113 -41 l-105 -25 -116 93 c-63 51 -113 94 -110 97 7 7 147 29 192 31 25 1
56 -16 140 -75z m-11667 23 c46 -17 79 -32 73 -34 -11 -4 -192 62 -203 74 -7
7 26 -3 130 -40z m11416 -68 c99 -79 129 -109 109 -109 -3 0 -48 -9 -101 -21
-52 -11 -102 -19 -110 -17 -22 4 -234 192 -226 200 4 3 50 13 102 21 52 8 99
15 103 16 5 0 60 -40 123 -90z m-241 -51 c63 -56 113 -104 110 -106 -2 -2 -52
-14 -112 -27 l-108 -23 -65 58 c-73 66 -177 170 -170 171 81 13 181 27 203 28
21 1 52 -21 142 -101z m-10957 69 c23 -6 42 -14 42 -18 0 -4 -27 1 -60 13 -33
11 -60 22 -60 25 0 3 8 2 18 -2 9 -3 36 -11 60 -18z m-46 -9 c37 -12 68 -26
68 -31 0 -5 -6 -7 -12 -5 -7 3 -38 13 -68 23 -51 16 -86 35 -65 35 5 0 39 -10
77 -22z m10749 -99 c66 -62 117 -115 114 -118 -4 -3 -55 -16 -113 -28 l-107
-21 -43 41 c-70 67 -185 197 -180 203 4 3 127 24 202 33 4 1 62 -49 127 -110z
m-10771 77 c35 -12 58 -26 52 -30 -11 -6 -119 29 -136 45 -18 16 20 10 84 -15z
m-42 -18 c59 -22 80 -38 47 -38 -24 0 -125 41 -125 51 0 13 8 12 78 -13z m258
6 c27 -9 55 -18 63 -20 8 -2 11 -7 8 -10 -6 -6 -147 34 -147 41 0 9 26 5 76
-11z m10417 -234 c-6 -7 -172 -39 -203 -39 -20 -1 -41 16 -86 67 -104 117
-157 182 -152 187 2 2 51 11 108 18 l105 14 117 -121 c64 -66 114 -123 111
-126z m-10440 214 c31 -10 57 -21 57 -26 0 -12 -10 -10 -78 13 -34 11 -62 25
-62 31 0 6 6 8 13 5 6 -2 38 -13 70 -23z m-307 2 c90 -32 97 -37 87 -47 -8 -8
-28 -5 -69 10 -71 27 -76 30 -69 42 8 11 5 12 51 -5z m329 -47 c21 -20 -30
-10 -133 26 -7 3 -11 9 -7 14 5 10 122 -24 140 -40z m210 30 c28 -6 55 -16 60
-21 7 -7 3 -8 -10 -5 -91 24 -135 38 -135 43 0 3 8 3 18 0 9 -3 40 -10 67 -17z
m9773 -21 c15 -18 64 -75 110 -127 45 -52 80 -96 78 -98 -7 -8 -217 -44 -225
-38 -15 9 -211 255 -211 265 0 5 26 11 58 15 31 4 62 8 67 10 6 2 29 4 53 4
37 1 47 -4 70 -31z m-10308 -6 c36 -16 41 -21 27 -27 -21 -9 -119 26 -125 45
-6 17 35 9 98 -18z m502 12 c32 -9 58 -21 58 -25 0 -5 -2 -9 -4 -9 -12 0 -136
42 -136 45 0 9 22 5 82 -11z m-275 -11 c51 -16 70 -33 36 -33 -26 0 -123 33
-123 42 0 12 28 10 87 -9z m-257 -35 c23 -9 24 -10 7 -20 -14 -7 -34 -4 -79
13 -53 20 -58 24 -44 35 14 10 25 9 54 -3 20 -8 48 -20 62 -25z m500 25 c33
-9 60 -20 60 -25 0 -12 -11 -10 -84 12 -103 32 -82 43 24 13z m9670 -109 c56
-70 104 -132 106 -138 4 -10 -167 -46 -217 -46 -18 0 -236 283 -222 287 16 5
149 21 189 22 41 1 42 1 144 -125z m-9961 95 c41 -14 59 -25 53 -31 -13 -13
-145 29 -136 43 7 12 12 12 83 -12z m536 1 c41 -14 49 -18 24 -15 -49 7 -129
33 -104 34 11 0 47 -8 80 -19z m-289 -6 c30 -8 54 -20 54 -25 0 -13 -20 -11
-76 7 -95 32 -77 47 22 18z m299 -27 c7 -6 -2 -7 -24 -3 -65 12 -111 27 -111
35 0 11 121 -18 135 -32z m-850 11 c50 -19 55 -23 40 -34 -14 -11 -26 -9 -69
7 -61 25 -65 27 -46 39 19 12 9 14 75 -12z m263 -5 c43 -15 56 -33 24 -33 -18
0 -112 29 -122 37 -9 8 25 23 40 17 8 -3 34 -13 58 -21z m9748 -105 c55 -73
103 -138 107 -144 7 -12 -75 -27 -428 -78 -1234 -181 -2302 -260 -3525 -260
-849 0 -1512 32 -2274 109 -244 25 -330 43 -151 31 233 -14 752 -18 1070 -7
814 27 1388 74 2700 221 292 33 782 87 1090 120 308 33 709 78 890 99 182 21
351 39 376 40 l46 1 99 -132z m-9510 106 c54 -15 80 -34 48 -34 -33 0 -134 32
-128 41 7 12 18 11 80 -7z m253 -6 c50 -12 77 -28 46 -28 -35 0 -135 32 -129
42 3 5 13 7 21 4 9 -4 36 -11 62 -18z m246 -4 c36 -9 65 -21 65 -26 0 -6 -6
-8 -12 -5 -7 2 -39 10 -70 17 -32 7 -58 17 -58 22 0 11 1 11 75 -8z m-1050
-18 c45 -20 48 -23 27 -30 -13 -5 -42 -1 -72 9 -50 16 -62 29 -37 38 20 9 30
7 82 -17z m241 8 c60 -20 72 -30 46 -38 -27 -9 -139 33 -121 45 18 11 18 12
75 -7z m256 0 c59 -17 77 -34 35 -34 -35 0 -118 31 -111 41 7 12 8 12 76 -7z
m259 -5 c24 -7 48 -16 54 -21 13 -12 -36 -10 -76 3 -19 6 -40 13 -47 15 -7 2
-10 9 -7 15 4 6 13 8 20 5 7 -2 33 -10 56 -17z m254 -5 c36 -9 65 -21 65 -26
0 -6 -6 -8 -12 -5 -7 2 -39 10 -70 17 -32 7 -58 17 -58 22 0 11 1 11 75 -8z
m-1075 -24 c44 -18 44 -18 20 -28 -15 -6 -34 -6 -47 -1 -13 5 -35 14 -50 20
-22 8 -24 12 -13 19 21 14 39 12 90 -10z m274 1 c22 -9 26 -15 18 -23 -14 -14
-122 16 -122 34 0 12 60 6 104 -11z m251 3 c38 -13 44 -19 31 -26 -17 -10
-126 19 -126 34 0 13 43 9 95 -8z m240 5 c64 -16 69 -19 59 -29 -10 -10 -134
19 -134 32 0 11 27 10 75 -3z m287 -10 c21 -5 36 -14 34 -18 -7 -11 -136 20
-136 32 0 10 32 5 102 -14z m251 0 c31 -7 57 -16 57 -22 0 -5 -10 -7 -22 -3
-13 3 -47 11 -75 17 -29 7 -53 16 -53 21 0 5 8 7 18 4 9 -2 43 -10 75 -17z
m-1120 -15 c26 -9 47 -21 47 -26 0 -12 -61 -6 -105 12 -23 9 -26 13 -15 20 19
13 19 13 73 -6z m271 0 c34 -12 44 -20 37 -27 -13 -13 -125 19 -116 34 9 13
24 11 79 -7z m251 5 c66 -17 69 -19 58 -30 -12 -12 -135 19 -127 33 7 11 20
10 69 -3z m298 -10 c23 -6 36 -14 31 -19 -11 -11 -134 19 -134 32 0 11 30 7
103 -13z m243 5 c36 -9 62 -20 57 -25 -10 -10 -133 20 -133 32 0 12 0 12 76
-7z m-1325 -6 c42 -12 49 -22 22 -32 -20 -8 -115 22 -107 35 7 12 39 11 85 -3z
m462 -14 c46 -16 63 -34 31 -34 -17 0 -95 21 -104 27 -3 3 17 21 26 23 0 0 21
-7 47 -16z m275 0 c40 -12 51 -19 40 -25 -20 -11 -135 21 -116 32 17 11 11 12
76 -7z m272 0 c34 -10 49 -19 41 -24 -16 -9 -133 19 -125 31 7 13 23 11 84 -7z
m258 3 c45 -11 66 -23 47 -28 -17 -4 -124 25 -119 32 6 11 7 11 72 -4z m290
-7 c28 -7 52 -16 52 -22 0 -5 -8 -7 -17 -5 -10 3 -42 11 -70 17 -29 7 -53 16
-53 22 0 5 8 7 18 5 9 -3 41 -11 70 -17z m-1618 -12 c24 -10 24 -10 4 -18 -21
-8 -104 9 -104 21 0 19 46 18 100 -3z m261 10 c45 -13 51 -28 13 -28 -38 0
-104 21 -98 31 7 12 40 11 85 -3z m469 -14 c41 -12 50 -18 38 -25 -22 -12
-127 19 -107 32 8 5 14 9 15 9 0 0 25 -7 54 -16z m278 -1 c37 -11 50 -18 37
-21 -27 -6 -126 18 -120 29 8 12 18 12 83 -8z m296 -5 c57 -16 20 -22 -49 -8
-30 6 -55 16 -55 22 0 11 32 7 104 -14z m249 7 c63 -15 83 -25 49 -25 -37 0
-122 21 -122 31 0 11 3 11 73 -6z m-1372 -6 c21 -7 36 -16 33 -20 -7 -12 -31
-11 -78 2 -29 8 -36 13 -25 20 18 11 24 11 70 -2z m283 0 c26 -7 35 -14 28
-21 -12 -12 -112 8 -112 23 0 12 36 11 84 -2z m-556 -5 c31 -9 28 -24 -5 -24
-38 0 -73 10 -73 21 0 10 44 12 78 3z m787 -26 c7 -7 -5 -9 -38 -4 -57 7 -75
15 -57 26 14 9 80 -7 95 -22z m233 21 c54 -13 77 -29 43 -29 -37 0 -111 22
-105 31 7 11 6 11 62 -2z m280 0 c49 -12 78 -29 49 -29 -33 0 -117 22 -117 31
0 12 11 11 68 -2z m310 -6 c17 -3 32 -10 32 -14 0 -12 -19 -11 -79 3 -55 12
-73 35 -18 24 17 -4 47 -10 65 -13z m270 1 c40 -6 69 -24 39 -24 -34 0 -127
24 -127 32 0 6 10 8 23 5 12 -4 41 -9 65 -13z m-1683 -9 l30 -13 -37 -1 c-43
-1 -70 8 -62 20 7 13 34 10 69 -6z m290 0 l30 -13 -26 -1 c-39 -1 -89 10 -89
20 0 13 51 10 85 -6z m-570 -5 c4 -6 -8 -10 -29 -10 -19 0 -38 5 -41 10 -4 6
8 10 29 10 19 0 38 -4 41 -10z m795 -21 c0 -12 -12 -11 -68 3 -35 9 -41 13
-27 18 23 8 95 -8 95 -21z m246 20 c39 -10 61 -29 33 -29 -25 0 -99 23 -99 31
0 12 12 11 66 -2z m284 0 c32 -7 48 -15 43 -20 -11 -11 -113 10 -113 23 0 11
9 10 70 -3z m295 -2 c27 -7 44 -16 39 -20 -14 -8 -124 14 -124 25 0 11 27 10
85 -5z m278 2 c31 -7 57 -16 57 -21 0 -5 -12 -7 -27 -4 -16 3 -45 8 -66 12
-20 3 -40 10 -43 15 -7 12 11 11 79 -2z m-2013 -9 c0 -5 -4 -10 -9 -10 -6 0
-13 5 -16 10 -3 6 1 10 9 10 9 0 16 -4 16 -10z m305 0 c16 -7 13 -9 -17 -9
-21 -1 -38 4 -38 9 0 12 27 12 55 0z m299 1 c11 -4 15 -10 9 -14 -13 -8 -83 3
-83 14 0 11 47 11 74 0z m-98 -11 c9 0 13 -4 10 -9 -7 -11 -56 -2 -56 11 0 6
7 7 16 4 9 -3 22 -6 30 -6z m313 -6 c2 -2 2 -7 -1 -10 -9 -8 -78 7 -78 18 0 8
68 1 79 -8z m296 -6 c7 -7 -2 -9 -30 -4 -22 3 -46 6 -52 6 -7 0 -13 5 -13 11
0 14 80 3 95 -13z m290 1 c7 -9 -3 -10 -40 -5 -27 3 -54 11 -60 17 -7 9 3 10
40 5 27 -3 54 -11 60 -17z m293 0 c13 -7 3 -9 -38 -4 -30 3 -59 11 -65 17 -13
14 79 3 103 -13z m291 0 c11 -7 0 -8 -38 -4 -30 3 -62 11 -70 16 -11 7 0 8 38
4 30 -3 62 -11 70 -16z m271 7 c30 -7 50 -15 45 -18 -12 -8 -116 12 -129 23
-14 12 19 11 84 -5z m-369 -12 c21 -4 39 -10 39 -15 0 -12 -8 -11 -70 2 -28 6
-47 15 -44 21 3 5 13 7 21 4 8 -3 32 -9 54 -12z m-1176 -4 c7 -12 -2 -12 -30
0 -19 8 -19 9 2 9 12 1 25 -3 28 -9z m305 0 c12 -7 8 -10 -15 -10 -16 0 -37 5
-45 10 -12 7 -8 10 15 10 17 0 37 -5 45 -10z m287 4 c13 -4 21 -10 18 -14 -5
-7 -84 6 -94 16 -6 6 50 5 76 -2z m303 -3 c43 -12 7 -20 -43 -9 -26 5 -47 12
-47 14 0 6 62 3 90 -5z m619 -11 c26 -15 -38 -11 -84 6 l-40 14 54 -6 c30 -3
62 -9 70 -14z m-1322 4 c-3 -3 -12 -4 -19 -1 -8 3 -5 6 6 6 11 1 17 -2 13 -5z
m313 -4 c22 -7 21 -8 -12 -9 -20 -1 -40 4 -43 9 -7 12 19 12 55 0z m325 -12
c7 -7 -5 -8 -35 -3 -25 4 -49 12 -55 17 -7 7 5 8 35 3 25 -4 50 -12 55 -17z
m295 0 c10 -6 2 -8 -25 -4 -22 3 -46 6 -52 6 -7 0 -13 5 -13 10 0 12 66 3 90
-12z m305 1 c18 -7 18 -8 -5 -8 -43 -1 -100 11 -100 21 0 10 69 2 105 -13z
m279 6 c25 -4 46 -12 46 -17 0 -6 -10 -8 -22 -5 -13 3 -40 9 -60 12 -21 4 -38
12 -38 17 0 6 6 8 14 5 7 -3 34 -9 60 -12z m-980 -13 c3 -5 -8 -6 -25 -4 -16
2 -29 6 -29 8 0 8 49 4 54 -4z m311 -2 c17 -7 16 -9 -10 -9 -16 0 -39 4 -50 9
-17 7 -16 9 10 9 17 0 39 -4 50 -9z m300 1 c17 -3 25 -9 20 -13 -11 -6 -105
10 -105 18 0 6 49 3 85 -5z m335 -13 c10 -6 -3 -7 -40 -3 -30 3 -59 11 -65 17
-12 13 83 1 105 -14z m-735 2 c13 -5 14 -9 5 -9 -8 0 -24 4 -35 9 -13 5 -14 9
-5 9 8 0 24 -4 35 -9z m322 0 c8 0 12 -4 9 -9 -3 -5 -22 -5 -42 -1 -46 11 -60
25 -15 16 18 -3 40 -6 48 -6z m301 -5 c49 -10 31 -18 -22 -10 -25 4 -46 12
-46 17 0 5 8 7 18 4 9 -2 32 -8 50 -11z m357 -16 c7 -7 -5 -8 -35 -3 -71 11
-94 25 -30 19 30 -4 60 -11 65 -16z m-430 1 l20 -9 -20 1 c-11 0 -31 4 -45 8
l-25 8 25 0 c14 0 34 -3 45 -8z m340 -12 c6 -6 -7 -7 -35 -2 -25 4 -49 11 -55
16 -7 7 6 8 35 3 25 -4 50 -11 55 -17z m-105 -4 c0 -2 -14 -4 -31 -4 -16 0
-28 4 -25 9 5 8 56 3 56 -5z m323 0 c20 -4 37 -10 37 -14 0 -8 -89 6 -98 15
-7 7 15 6 61 -1z m-70 -21 c-7 -2 -19 -2 -25 0 -7 3 -2 5 12 5 14 0 19 -2 13
-5z m264 -19 c-3 -3 -12 -4 -19 -1 -8 3 -5 6 6 6 11 1 17 -2 13 -5z"/>
</g>
</svg>
